<?xml version="1.0" encoding="UTF-8" standalone="no"?>
<svg
   xmlns:dc="http://purl.org/dc/elements/1.1/"
   xmlns:cc="http://creativecommons.org/ns#"
   xmlns:rdf="http://www.w3.org/1999/02/22-rdf-syntax-ns#"
   xmlns:svg="http://www.w3.org/2000/svg"
   xmlns="http://www.w3.org/2000/svg"
   viewBox="0 0 1496 1496"
   height="1496"
   width="1496"
   xml:space="preserve"
   id="svg2"
   version="1.1"><metadata
     id="metadata8"><rdf:RDF><cc:Work
         rdf:about=""><dc:format>image/svg+xml</dc:format><dc:type
           rdf:resource="http://purl.org/dc/dcmitype/StillImage" /></cc:Work></rdf:RDF></metadata><defs
     id="defs6"><clipPath
       id="clipPath22"
       clipPathUnits="userSpaceOnUse"><path
         id="path20"
         d="M 11220,0 V 0 L 5612.43,2.40234 2233.71,3381.15 8940,7890 11220,5610 V 0" /></clipPath><linearGradient
       id="linearGradient28"
       spreadMethod="pad"
       gradientTransform="matrix(0,7890,7890,0,6726.86,0)"
       gradientUnits="userSpaceOnUse"
       y2="0"
       x2="1"
       y1="0"
       x1="0"><stop
         id="stop24"
         offset="0"
         style="stop-opacity:1;stop-color:#3d4445" /><stop
         id="stop26"
         offset="1"
         style="stop-opacity:1;stop-color:#323839" /></linearGradient></defs><g
     transform="matrix(1.3333333,0,0,-1.3333333,0,1496)"
     id="g10"><g
       transform="scale(0.1)"
       id="g12"><path
         id="path14"
         style="fill:#3e4546;fill-opacity:1;fill-rule:nonzero;stroke:none"
         d="M 0,0 H 11220 V 11220 H 0 Z" /><g
         id="g16"><g
           clip-path="url(#clipPath22)"
           id="g18"><path
             id="path30"
             style="fill:url(#linearGradient28);fill-opacity:1;fill-rule:nonzero;stroke:none"
             d="M 11220,0 V 0 L 5612.43,2.40234 2233.71,3381.15 8940,7890 11220,5610 V 0" /></g></g><path
         id="path32"
         style="fill:#90a6b4;fill-opacity:1;fill-rule:nonzero;stroke:none"
         d="M 8842.27,7934.72 H 3504.81 c -84.02,0 -152.13,-68.11 -152.13,-152.13 V 4536.12 c 0,-40.28 -15.99,-78.92 -44.45,-107.44 l -973.9,-837.19 h -108.71 v -160.03 h 0.07 c -0.68,-78.68 60.15,-154.54 152.35,-154.54 H 7577.9 c 141,0 276.22,56.02 375.91,155.72 l 996.02,996.01 c 28.53,28.53 44.56,67.22 44.56,107.57 v 3246.37 c 0,84.02 -68.11,152.13 -152.12,152.13" /><path
         id="path34"
         style="fill:#edf5f7;fill-opacity:1;fill-rule:nonzero;stroke:none"
         d="M 3205.57,7790.95 V 4696.6 c 0,-40.28 -15.98,-78.92 -44.45,-107.44 l -890.73,-892.15 c -95.71,-95.87 -27.81,-259.61 107.66,-259.61 h 5052.74 c 141,0 276.22,56.02 375.92,155.72 l 996.02,996.01 c 28.52,28.54 44.55,67.23 44.55,107.57 v 3094.25 c 0,84.02 -68.11,152.13 -152.12,152.13 H 3357.7 c -84.02,0 -152.13,-68.11 -152.13,-152.13" /><path
         id="path36"
         style="fill:#3e4546;fill-opacity:1;fill-rule:nonzero;stroke:none"
         d="M 8622.22,4823.71 H 3444.34 c -51,0 -92.35,41.35 -92.35,92.35 v 2718.59 c 0,51.01 41.35,92.36 92.35,92.36 h 5177.88 c 50.99,0 92.34,-41.35 92.34,-92.36 V 4916.06 c 0,-51 -41.35,-92.35 -92.34,-92.35" /><path
         id="path38"
         style="fill:#90a6b4;fill-opacity:1;fill-rule:nonzero;stroke:none"
         d="m 7499.01,3710.44 h -4704 c -22.55,0 -34.03,27.1 -18.33,43.29 l 572.86,591.19 c 42.97,44.35 102.09,69.39 163.85,69.39 h 4684.93 c 22.55,0 34.02,-27.1 18.33,-43.29 l -586.12,-604.89 c -34.5,-35.6 -81.96,-55.69 -131.52,-55.69" /><path
         id="path40"
         style="fill:#3e4546;fill-opacity:1;fill-rule:nonzero;stroke:none"
         d="M 5766.8,3598.74 H 4571.77 c -18.23,0 -27.4,22.02 -14.54,34.95 l 345.06,347.19 c 14.96,15.06 35.3,23.51 56.52,23.51 h 1181.83 c 18.24,0 27.4,-22.02 14.55,-34.96 l -354.37,-356.54 c -9,-9.06 -21.25,-14.15 -34.02,-14.15" /></g></g></svg>