<?xml version="1.0" encoding="UTF-8" standalone="no"?>
<svg
   xmlns:dc="http://purl.org/dc/elements/1.1/"
   xmlns:cc="http://creativecommons.org/ns#"
   xmlns:rdf="http://www.w3.org/1999/02/22-rdf-syntax-ns#"
   xmlns:svg="http://www.w3.org/2000/svg"
   xmlns="http://www.w3.org/2000/svg"
   viewBox="0 0 447.98666 313.58667"
   height="313.58667"
   width="447.98666"
   xml:space="preserve"
   id="svg2"
   version="1.1"><metadata
     id="metadata8"><rdf:RDF><cc:Work
         rdf:about=""><dc:format>image/svg+xml</dc:format><dc:type
           rdf:resource="http://purl.org/dc/dcmitype/StillImage" /></cc:Work></rdf:RDF></metadata><defs
     id="defs6" /><g
     transform="matrix(1.3333333,0,0,-1.3333333,0,313.58667)"
     id="g10"><g
       transform="scale(0.1)"
       id="g12"><path
         id="path14"
         style="fill:#0c546f;fill-opacity:1;fill-rule:nonzero;stroke:none"
         d="M 0,0 H 3359.86 V 2351.9 H 0 Z" /><path
         id="path16"
         style="fill:#0e6282;fill-opacity:1;fill-rule:nonzero;stroke:none"
         d="m 2781.89,1164.54 c 0,-608.579 -493.35,-1101.9814 -1101.96,-1101.9814 -608.6,0 -1101.965,493.4024 -1101.965,1101.9814 0,608.61 493.365,1101.99 1101.965,1101.99 608.61,0 1101.96,-493.38 1101.96,-1101.99" /><path
         id="path18"
         style="fill:#117599;fill-opacity:1;fill-rule:nonzero;stroke:none"
         d="m 2468.58,1164.54 c 0,-435.552 -353.09,-788.661 -788.65,-788.661 -435.56,0 -788.653,353.109 -788.653,788.661 0,435.57 353.093,788.67 788.653,788.67 435.56,0 788.65,-353.1 788.65,-788.67" /><path
         id="path20"
         style="fill:#ffffff;fill-opacity:1;fill-rule:nonzero;stroke:none"
         d="m 1896.04,1548.89 h -20 v 10 h 20 v -10" /><path
         id="path22"
         style="fill:#ffffff;fill-opacity:1;fill-rule:nonzero;stroke:none"
         d="m 1971.01,1548.89 h -37.48 v 10 h 37.48 z m 74.97,0 h -37.49 v 10 h 37.49 z m 74.96,0 h -37.48 v 10 h 37.48 z m 74.97,0 h -37.49 v 10 h 37.49 z m 74.96,0 h -37.48 v 10 h 37.48 z m 74.97,0 h -37.49 v 10 h 37.49 v -10" /><path
         id="path24"
         style="fill:#ffffff;fill-opacity:1;fill-rule:nonzero;stroke:none"
         d="m 2408.32,1548.89 h -25 v 10 h 15 v 15 h 10 v -25" /><path
         id="path26"
         style="fill:#ffffff;fill-opacity:1;fill-rule:nonzero;stroke:none"
         d="m 2408.32,1827.03 h -10 v 36.16 h 10 z m 0,-72.33 h -10 v 36.16 h 10 z m 0,-72.32 h -10 v 36.16 h 10 z m 0,-72.33 h -10 v 36.16 h 10 v -36.16" /><path
         id="path28"
         style="fill:#ffffff;fill-opacity:1;fill-rule:nonzero;stroke:none"
         d="m 2408.32,1899.35 h -10 v 20 h 10 v -20" /><path
         id="path30"
         style="fill:#ffffff;fill-opacity:1;fill-rule:nonzero;stroke:none"
         d="m 2941.53,1684.38 h -10 v 20 h 10 v -20" /><path
         id="path32"
         style="fill:#ffffff;fill-opacity:1;fill-rule:nonzero;stroke:none"
         d="m 2941.53,1594.16 h -10 v 45.11 h 10 z m 0,-90.23 h -10 v 45.12 h 10 v -45.12" /><path
         id="path34"
         style="fill:#ffffff;fill-opacity:1;fill-rule:nonzero;stroke:none"
         d="m 2941.53,1433.81 h -25 v 10 h 15 v 15 h 10 v -25" /><path
         id="path36"
         style="fill:#ffffff;fill-opacity:1;fill-rule:nonzero;stroke:none"
         d="m 2000.75,1433.81 h -39.82 v 10 h 39.82 v -10 m 79.63,0 h -39.81 v 10 h 39.81 v -10 m 79.64,0 h -39.82 v 10 h 39.82 v -10 m 79.63,0 h -39.82 v 10 h 39.82 v -10 m 79.64,0 h -39.83 v 10 h 39.83 v -10 m 79.63,0 h -39.82 v 10 h 39.82 v -10 m 79.63,0 h -39.82 v 10 h 39.82 v -10 m 79.63,0 h -39.81 v 10 h 39.81 v -10 m 79.64,0 H 2598 v 10 h 39.82 v -10 m 79.63,0 h -39.81 v 10 h 39.81 v -10 m 79.64,0 h -39.82 v 10 h 39.82 v -10 m 79.63,0 h -39.82 v 10 h 39.82 v -10" /><path
         id="path38"
         style="fill:#ffffff;fill-opacity:1;fill-rule:nonzero;stroke:none"
         d="m 1901.11,1433.81 h 20 v 10 h -20 z" /><path
         id="path40"
         style="fill:#ffffff;fill-opacity:1;fill-rule:nonzero;stroke:none"
         d="m 2729.28,1235 h -20 v 10 h 20 v -10" /><path
         id="path42"
         style="fill:#ffffff;fill-opacity:1;fill-rule:nonzero;stroke:none"
         d="m 2603.9,1235 h -35.14 v 10 h 35.14 z m 70.25,0 h -35.13 v 10 h 35.13 v -10" /><path
         id="path44"
         style="fill:#ffffff;fill-opacity:1;fill-rule:nonzero;stroke:none"
         d="m 2533.63,1235 h -25 v 25 h 10 v -15 h 15 v -10" /><path
         id="path46"
         style="fill:#ffffff;fill-opacity:1;fill-rule:nonzero;stroke:none"
         d="m 2518.63,1527.17 h -10 v 38.17 h 10 z m 0,-76.33 h -10 V 1489 h 10 z m 0,-76.34 h -10 v 38.17 h 10 z m 0,-76.34 h -10 v 38.17 h 10 v -38.17" /><path
         id="path48"
         style="fill:#ffffff;fill-opacity:1;fill-rule:nonzero;stroke:none"
         d="m 2518.63,1603.51 h -10 v 15 h -15 v 10 h 25 v -25" /><path
         id="path50"
         style="fill:#ffffff;fill-opacity:1;fill-rule:nonzero;stroke:none"
         d="m 2055.71,1618.51 h -39.81 v 10 h 39.81 z m 79.63,0 h -39.81 v 10 h 39.81 z m 79.62,0 h -39.81 v 10 h 39.81 z m 79.62,0 h -39.8 v 10 h 39.8 z m 79.63,0 h -39.82 v 10 h 39.82 z m 79.62,0 h -39.82 v 10 h 39.82 v -10" /><path
         id="path52"
         style="fill:#ffffff;fill-opacity:1;fill-rule:nonzero;stroke:none"
         d="m 1976.08,1618.51 h -20 v 10 h 20 v -10" /><path
         id="path54"
         style="fill:#ffffff;fill-opacity:1;fill-rule:nonzero;stroke:none"
         d="m 1735.57,1994.88 h -20 v 10 h 20 v -10" /><path
         id="path56"
         style="fill:#ffffff;fill-opacity:1;fill-rule:nonzero;stroke:none"
         d="m 1602.87,1994.88 h -37.57 v 10 h 37.57 z m 75.13,0 h -37.57 v 10 H 1678 v -10" /><path
         id="path58"
         style="fill:#ffffff;fill-opacity:1;fill-rule:nonzero;stroke:none"
         d="m 1512.73,1979.88 h -10 v 25 h 25 v -10 h -15 v -15" /><path
         id="path60"
         style="fill:#ffffff;fill-opacity:1;fill-rule:nonzero;stroke:none"
         d="m 1512.73,1889.66 h -10 v 45.11 h 10 z m 0,-90.21 h -10 v 45.1 h 10 v -45.1" /><path
         id="path62"
         style="fill:#ffffff;fill-opacity:1;fill-rule:nonzero;stroke:none"
         d="m 1512.73,1734.34 h -10 v 20 h 10 v -20" /><path
         id="path64"
         style="fill:#ffffff;fill-opacity:1;fill-rule:nonzero;stroke:none"
         d="m 394.324,2004.61 h -20 v 10 h 20 v -10" /><path
         id="path66"
         style="fill:#ffffff;fill-opacity:1;fill-rule:nonzero;stroke:none"
         d="m 476.465,2004.61 h -41.07 v 10 h 41.07 z m 82.133,0 h -41.063 v 10 h 41.063 z m 82.14,0 h -41.07 v 10 h 41.07 z m 82.133,0 h -41.062 v 10 h 41.062 z m 82.141,0 h -41.071 v 10 h 41.071 z m 82.133,0 h -41.067 v 10 h 41.067 z m 82.136,0 h -41.066 v 10 h 41.066 z m 82.139,0 h -41.07 v 10 h 41.07 z m 82.13,0 h -41.06 v 10 h 41.06 z m 82.14,0 h -41.07 v 10 h 41.07 v -10" /><path
         id="path68"
         style="fill:#ffffff;fill-opacity:1;fill-rule:nonzero;stroke:none"
         d="m 1281.76,1989.61 h -10 v 15 h -15 v 10 h 25 v -25" /><path
         id="path70"
         style="fill:#ffffff;fill-opacity:1;fill-rule:nonzero;stroke:none"
         d="m 1281.76,1907.29 h -10 v 41.16 h 10 z m 0,-82.33 h -10 v 41.17 h 10 z m 0,-82.33 h -10 v 41.17 h 10 v -41.17" /><path
         id="path72"
         style="fill:#ffffff;fill-opacity:1;fill-rule:nonzero;stroke:none"
         d="m 1296.76,1676.46 h -25 v 25 h 10 v -15 h 15 v -10" /><path
         id="path74"
         style="fill:#ffffff;fill-opacity:1;fill-rule:nonzero;stroke:none"
         d="m 1368.33,1676.46 h -20 v 10 h 20 v -10" /><path
         id="path76"
         style="fill:#ffffff;fill-opacity:1;fill-rule:nonzero;stroke:none"
         d="m 1009.72,1617.34 h -10.001 v 20 h 10.001 v -20" /><path
         id="path78"
         style="fill:#ffffff;fill-opacity:1;fill-rule:nonzero;stroke:none"
         d="m 1009.72,1529.82 h -10.001 v 43.76 h 10.001 z m 0,-87.52 h -10.001 v 43.77 h 10.001 v -43.77" /><path
         id="path80"
         style="fill:#ffffff;fill-opacity:1;fill-rule:nonzero;stroke:none"
         d="m 1024.72,1373.55 h -25.001 v 25 h 10.001 v -15 h 15 v -10" /><path
         id="path82"
         style="fill:#ffffff;fill-opacity:1;fill-rule:nonzero;stroke:none"
         d="m 1101.46,1373.55 h -38.37 v 10 h 38.37 z m 76.73,0 h -38.37 v 10 h 38.37 z m 76.73,0 h -38.37 v 10 h 38.37 z m 76.74,0 h -38.37 v 10 h 38.37 z m 76.73,0 h -38.37 v 10 h 38.37 v -10" /><path
         id="path84"
         style="fill:#ffffff;fill-opacity:1;fill-rule:nonzero;stroke:none"
         d="m 1466.75,1373.55 h -20 v 10 h 20 v -10" /><path
         id="path86"
         style="fill:#ffffff;fill-opacity:1;fill-rule:nonzero;stroke:none"
         d="m 642.82,794.871 h -20 v 10 h 20 v -10" /><path
         id="path88"
         style="fill:#ffffff;fill-opacity:1;fill-rule:nonzero;stroke:none"
         d="m 724.602,794.871 h -40.891 v 10 h 40.891 z m 81.777,0 h -40.891 v 10 h 40.891 z m 81.781,0 h -40.89 v 10 h 40.89 v -10" /><path
         id="path90"
         style="fill:#ffffff;fill-opacity:1;fill-rule:nonzero;stroke:none"
         d="m 954.047,794.871 h -25 v 10 h 15 v 15 h 10 v -25" /><path
         id="path92"
         style="fill:#ffffff;fill-opacity:1;fill-rule:nonzero;stroke:none"
         d="m 954.047,1147.23 h -10 v 36.37 h 10 z m 0,-72.75 h -10 v 36.38 h 10 z m 0,-72.75 h -10 v 36.38 h 10 z m 0,-72.75 h -10 v 36.379 h 10 z m 0,-72.742 h -10 v 36.371 h 10 v -36.371" /><path
         id="path94"
         style="fill:#ffffff;fill-opacity:1;fill-rule:nonzero;stroke:none"
         d="m 954.047,1219.99 h -10 V 1245 h 25 v -10 h -15 v -15.01" /><path
         id="path96"
         style="fill:#ffffff;fill-opacity:1;fill-rule:nonzero;stroke:none"
         d="m 1050.75,1235 h -40.85 v 10 h 40.85 z m 81.7,0 h -40.85 v 10 h 40.85 z m 81.7,0 h -40.85 v 10 h 40.85 z m 81.7,0 H 1255 v 10 h 40.85 z m 81.7,0 h -40.85 v 10 h 40.85 z m 81.7,0 h -40.85 v 10 h 40.85 z m 81.71,0 h -40.85 v 10 h 40.85 z m 81.7,0 h -40.85 v 10 h 40.85 z m 81.7,0 h -40.85 v 10 h 40.85 z m 81.7,0 h -40.85 v 10 h 40.85 z m 81.7,0 h -40.85 v 10 h 40.85 z m 81.7,0 h -40.85 v 10 h 40.85 z m 81.7,0 h -40.85 v 10 h 40.85 z m 81.71,0 h -40.86 v 10 h 40.86 z m 81.7,0 h -40.85 v 10 h 40.85 z m 81.7,0 h -40.85 v 10 h 40.85 z m 81.7,0 h -40.85 v 10 h 40.85 v -10" /><path
         id="path98"
         style="fill:#ffffff;fill-opacity:1;fill-rule:nonzero;stroke:none"
         d="m 2423.83,1219.99 h -10 V 1235 h -15 v 10 h 25 v -25.01" /><path
         id="path100"
         style="fill:#ffffff;fill-opacity:1;fill-rule:nonzero;stroke:none"
         d="m 2423.83,1152.02 h -10 v 33.99 h 10 z m 0,-67.99 h -10 v 33.99 h 10 z m 0,-67.99 h -10 v 33.99 h 10 v -33.99" /><path
         id="path102"
         style="fill:#ffffff;fill-opacity:1;fill-rule:nonzero;stroke:none"
         d="m 2438.83,957.039 h -25 v 25 h 10 v -15 h 15 v -10" /><path
         id="path104"
         style="fill:#ffffff;fill-opacity:1;fill-rule:nonzero;stroke:none"
         d="m 2510.62,957.039 h -35.9 v 10 h 35.9 z m 71.79,0 h -35.9 v 10 h 35.9 z m 71.79,0 h -35.89 v 10 h 35.89 z m 71.8,0 h -35.9 v 10 h 35.9 v -10" /><path
         id="path106"
         style="fill:#ffffff;fill-opacity:1;fill-rule:nonzero;stroke:none"
         d="m 2786.89,942.039 h -10 v 15 h -15 v 10 h 25 v -25" /><path
         id="path108"
         style="fill:#ffffff;fill-opacity:1;fill-rule:nonzero;stroke:none"
         d="m 2786.89,867.52 h -10 v 37.25 h 10 z m 0,-74.532 h -10 v 37.262 h 10 z m 0,-74.519 h -10 v 37.261 h 10 v -37.261" /><path
         id="path110"
         style="fill:#ffffff;fill-opacity:1;fill-rule:nonzero;stroke:none"
         d="m 2786.89,661.219 h -10 v 20 h 10 v -20" /><path
         id="path112"
         style="fill:#ffffff;fill-opacity:1;fill-rule:nonzero;stroke:none"
         d="m 505.906,1349.98 h -10 v 20 h 10 v -20" /><path
         id="path114"
         style="fill:#ffffff;fill-opacity:1;fill-rule:nonzero;stroke:none"
         d="m 505.906,1268.49 h -10 v 40.74 h 10 z m 0,-81.48 h -10 v 40.74 h 10 v -40.74" /><path
         id="path116"
         style="fill:#ffffff;fill-opacity:1;fill-rule:nonzero;stroke:none"
         d="m 520.906,1121.27 h -25 v 25 h 10 v -15 h 15 v -10" /><path
         id="path118"
         style="fill:#ffffff;fill-opacity:1;fill-rule:nonzero;stroke:none"
         d="m 591.16,1121.27 h -35.125 v 10 h 35.125 z m 70.262,0 h -35.129 v 10 h 35.129 v -10" /><path
         id="path120"
         style="fill:#ffffff;fill-opacity:1;fill-rule:nonzero;stroke:none"
         d="m 721.555,1121.27 h -25 v 10 h 15 v 15 h 10 v -25" /><path
         id="path122"
         style="fill:#ffffff;fill-opacity:1;fill-rule:nonzero;stroke:none"
         d="m 721.555,1196.38 h -10 v 50.11 h 10 v -50.11" /><path
         id="path124"
         style="fill:#ffffff;fill-opacity:1;fill-rule:nonzero;stroke:none"
         d="m 721.555,1296.62 h -10 v 25 h 25 v -10 h -15 v -15" /><path
         id="path126"
         style="fill:#ffffff;fill-opacity:1;fill-rule:nonzero;stroke:none"
         d="m 815.828,1311.62 h -39.637 v 10 h 39.637 z m 79.277,0 h -39.636 v 10 h 39.636 z m 79.282,0 h -39.641 v 10 h 39.641 z m 79.273,0 h -39.64 v 10 h 39.64 z m 79.28,0 h -39.64 v 10 h 39.64 v -10" /><path
         id="path128"
         style="fill:#ffffff;fill-opacity:1;fill-rule:nonzero;stroke:none"
         d="m 1197.58,1311.62 h -25 v 10 h 15 v 15 h 10 v -25" /><path
         id="path130"
         style="fill:#ffffff;fill-opacity:1;fill-rule:nonzero;stroke:none"
         d="m 1197.58,1372.67 h -10 v 36.06 h 10 v -36.06" /><path
         id="path132"
         style="fill:#ffffff;fill-opacity:1;fill-rule:nonzero;stroke:none"
         d="m 1197.58,1444.78 h -10 v 25 h 25 v -10 h -15 v -15" /><path
         id="path134"
         style="fill:#ffffff;fill-opacity:1;fill-rule:nonzero;stroke:none"
         d="m 1296.79,1459.78 h -42.11 v 10 h 42.11 v -10 m 84.2,0 h -42.1 v 10 h 42.1 v -10 m 84.21,0 h -42.11 v 10 h 42.11 v -10" /><path
         id="path136"
         style="fill:#ffffff;fill-opacity:1;fill-rule:nonzero;stroke:none"
         d="m 1507.3,1459.78 h 19.9883 v 10 H 1507.3 Z" /><path
         id="path138"
         style="fill:#ffffff;fill-opacity:1;fill-rule:nonzero;stroke:none"
         d="m 2077.19,324.969 c 0,-16.348 -12.81,-29.629 -28.62,-29.629 h -726.24 c -15.81,0 -28.62,13.281 -28.62,29.629 v 241.422 c 0,16.347 12.81,29.629 28.62,29.629 h 726.24 c 15.81,0 28.62,-13.282 28.62,-29.629 V 324.969" /><path
         id="path140"
         style="fill:#f3f2f2;fill-opacity:1;fill-rule:nonzero;stroke:none"
         d="m 1382.89,498.539 h -50.76 c -1.12,0 -2.01,0.902 -2.01,2.012 v 50.777 c 0,1.121 0.89,2 2.01,2 h 50.76 c 1.11,0 2,-0.879 2,-2 v -50.777 c 0,-1.11 -0.89,-2.012 -2,-2.012" /><path
         id="path142"
         style="fill:#e5e5e5;fill-opacity:1;fill-rule:nonzero;stroke:none"
         d="m 1382.89,555.34 h -50.76 c -2.22,0 -4.03,-1.801 -4.03,-4.012 v -50.777 c 0,-2.199 1.81,-4 4.03,-4 h 50.76 c 2.22,0 4.02,1.801 4.02,4 v 50.777 c 0,2.211 -1.8,4.012 -4.02,4.012 z m 0,-4.012 v -50.777 h -50.76 v 50.777 h 50.76" /><path
         id="path144"
         style="fill:#f3f2f2;fill-opacity:1;fill-rule:nonzero;stroke:none"
         d="m 1464.75,498.539 h -50.77 c -1.11,0 -2.01,0.902 -2.01,2.012 v 50.777 c 0,1.121 0.9,2 2.01,2 h 50.77 c 1.11,0 2,-0.879 2,-2 v -50.777 c 0,-1.11 -0.89,-2.012 -2,-2.012" /><path
         id="path146"
         style="fill:#e5e5e5;fill-opacity:1;fill-rule:nonzero;stroke:none"
         d="m 1464.75,555.34 h -50.77 c -2.21,0 -4.02,-1.801 -4.02,-4.012 v -50.777 c 0,-2.199 1.81,-4 4.02,-4 h 50.77 c 2.22,0 4.02,1.801 4.02,4 v 50.777 c 0,2.211 -1.8,4.012 -4.02,4.012 z m 0,-4.012 v -50.777 h -50.77 v 50.777 h 50.77" /><path
         id="path148"
         style="fill:#f3f2f2;fill-opacity:1;fill-rule:nonzero;stroke:none"
         d="m 1546.61,498.539 h -50.77 c -1.11,0 -2,0.902 -2,2.012 v 50.777 c 0,1.121 0.89,2 2,2 h 50.77 c 1.11,0 2,-0.879 2,-2 v -50.777 c 0,-1.11 -0.89,-2.012 -2,-2.012" /><path
         id="path150"
         style="fill:#e5e5e5;fill-opacity:1;fill-rule:nonzero;stroke:none"
         d="m 1546.61,555.34 h -50.77 c -2.21,0 -4.02,-1.801 -4.02,-4.012 v -50.777 c 0,-2.199 1.81,-4 4.02,-4 h 50.77 c 2.22,0 4.02,1.801 4.02,4 v 50.777 c 0,2.211 -1.8,4.012 -4.02,4.012 z m 0,-4.012 v -50.777 h -50.77 v 50.777 h 50.77" /><path
         id="path152"
         style="fill:#f3f2f2;fill-opacity:1;fill-rule:nonzero;stroke:none"
         d="m 1628.47,498.539 h -50.76 c -1.13,0 -2.02,0.902 -2.02,2.012 v 50.777 c 0,1.121 0.89,2 2.02,2 h 50.76 c 1.11,0 2,-0.879 2,-2 v -50.777 c 0,-1.11 -0.89,-2.012 -2,-2.012" /><path
         id="path154"
         style="fill:#e5e5e5;fill-opacity:1;fill-rule:nonzero;stroke:none"
         d="m 1628.47,555.34 h -50.76 c -2.22,0 -4.03,-1.801 -4.03,-4.012 v -50.777 c 0,-2.199 1.81,-4 4.03,-4 h 50.76 c 2.22,0 4.02,1.801 4.02,4 v 50.777 c 0,2.211 -1.8,4.012 -4.02,4.012 z m 0,-4.012 v -50.777 h -50.76 v 50.777 h 50.76" /><path
         id="path156"
         style="fill:#f3f2f2;fill-opacity:1;fill-rule:nonzero;stroke:none"
         d="m 1710.32,498.539 h -50.76 c -1.11,0 -2,0.902 -2,2.012 v 50.777 c 0,1.121 0.89,2 2,2 h 50.76 c 1.12,0 2,-0.879 2,-2 v -50.777 c 0,-1.11 -0.88,-2.012 -2,-2.012" /><path
         id="path158"
         style="fill:#e5e5e5;fill-opacity:1;fill-rule:nonzero;stroke:none"
         d="m 1710.32,555.34 h -50.76 c -2.22,0 -4.02,-1.801 -4.02,-4.012 v -50.777 c 0,-2.199 1.8,-4 4.02,-4 h 50.76 c 2.23,0 4.03,1.801 4.03,4 v 50.777 c 0,2.211 -1.8,4.012 -4.03,4.012 z m 0,-4.012 v -50.777 h -50.76 v 50.777 h 50.76" /><path
         id="path160"
         style="fill:#f3f2f2;fill-opacity:1;fill-rule:nonzero;stroke:none"
         d="m 1792.19,498.539 h -50.76 c -1.13,0 -2.02,0.902 -2.02,2.012 v 50.777 c 0,1.121 0.89,2 2.02,2 h 50.76 c 1.11,0 2,-0.879 2,-2 v -50.777 c 0,-1.11 -0.89,-2.012 -2,-2.012" /><path
         id="path162"
         style="fill:#e5e5e5;fill-opacity:1;fill-rule:nonzero;stroke:none"
         d="m 1792.19,555.34 h -50.76 c -2.23,0 -4.03,-1.801 -4.03,-4.012 v -50.777 c 0,-2.199 1.8,-4 4.03,-4 h 50.76 c 2.22,0 4.02,1.801 4.02,4 v 50.777 c 0,2.211 -1.8,4.012 -4.02,4.012 z m 0,-4.012 v -50.777 h -50.76 v 50.777 h 50.76" /><path
         id="path164"
         style="fill:#f3f2f2;fill-opacity:1;fill-rule:nonzero;stroke:none"
         d="m 1874.04,498.539 h -50.76 c -1.11,0 -2.01,0.902 -2.01,2.012 v 50.777 c 0,1.121 0.9,2 2.01,2 h 50.76 c 1.12,0 2,-0.879 2,-2 v -50.777 c 0,-1.11 -0.88,-2.012 -2,-2.012" /><path
         id="path166"
         style="fill:#e5e5e5;fill-opacity:1;fill-rule:nonzero;stroke:none"
         d="m 1874.04,555.34 h -50.76 c -2.22,0 -4.02,-1.801 -4.02,-4.012 v -50.777 c 0,-2.199 1.8,-4 4.02,-4 h 50.76 c 2.23,0 4.03,1.801 4.03,4 v 50.777 c 0,2.211 -1.8,4.012 -4.03,4.012 z m 0,-4.012 v -50.777 h -50.76 v 50.777 h 50.76" /><path
         id="path168"
         style="fill:#f3f2f2;fill-opacity:1;fill-rule:nonzero;stroke:none"
         d="m 1955.9,498.539 h -50.76 c -1.12,0 -2.01,0.902 -2.01,2.012 v 50.777 c 0,1.121 0.89,2 2.01,2 h 50.76 c 1.11,0 2.01,-0.879 2.01,-2 v -50.777 c 0,-1.11 -0.9,-2.012 -2.01,-2.012" /><path
         id="path170"
         style="fill:#e5e5e5;fill-opacity:1;fill-rule:nonzero;stroke:none"
         d="m 1955.9,555.34 h -50.76 c -2.22,0 -4.03,-1.801 -4.03,-4.012 v -50.777 c 0,-2.199 1.81,-4 4.03,-4 h 50.76 c 2.23,0 4.02,1.801 4.02,4 v 50.777 c 0,2.211 -1.79,4.012 -4.02,4.012 z m 0,-4.012 v -50.777 h -50.76 v 50.777 h 50.76" /><path
         id="path172"
         style="fill:#f3f2f2;fill-opacity:1;fill-rule:nonzero;stroke:none"
         d="m 1382.89,418.289 h -50.76 c -1.12,0 -2.01,0.902 -2.01,2.012 v 50.777 c 0,1.09 0.89,1.992 2.01,1.992 h 50.76 c 1.11,0 2,-0.902 2,-1.992 v -50.777 c 0,-1.11 -0.89,-2.012 -2,-2.012" /><path
         id="path174"
         style="fill:#e5e5e5;fill-opacity:1;fill-rule:nonzero;stroke:none"
         d="m 1382.89,475.059 h -50.76 c -2.22,0 -4.03,-1.77 -4.03,-3.981 v -50.777 c 0,-2.231 1.81,-4.031 4.03,-4.031 h 50.76 c 2.22,0 4.02,1.8 4.02,4.031 v 50.777 c 0,2.211 -1.8,3.981 -4.02,3.981 z m 0,-3.981 v -50.777 h -50.76 v 50.777 h 50.76" /><path
         id="path176"
         style="fill:#f3f2f2;fill-opacity:1;fill-rule:nonzero;stroke:none"
         d="m 1464.75,418.289 h -50.77 c -1.11,0 -2.01,0.902 -2.01,2.012 v 50.777 c 0,1.09 0.9,1.992 2.01,1.992 h 50.77 c 1.11,0 2,-0.902 2,-1.992 v -50.777 c 0,-1.11 -0.89,-2.012 -2,-2.012" /><path
         id="path178"
         style="fill:#e5e5e5;fill-opacity:1;fill-rule:nonzero;stroke:none"
         d="m 1464.75,475.059 h -50.77 c -2.21,0 -4.02,-1.77 -4.02,-3.981 v -50.777 c 0,-2.231 1.81,-4.031 4.02,-4.031 h 50.77 c 2.22,0 4.02,1.8 4.02,4.031 v 50.777 c 0,2.211 -1.8,3.981 -4.02,3.981 z m 0,-3.981 v -50.777 h -50.77 v 50.777 h 50.77" /><path
         id="path180"
         style="fill:#f3f2f2;fill-opacity:1;fill-rule:nonzero;stroke:none"
         d="m 1546.61,418.289 h -50.77 c -1.11,0 -2,0.902 -2,2.012 v 50.777 c 0,1.09 0.89,1.992 2,1.992 h 50.77 c 1.11,0 2,-0.902 2,-1.992 v -50.777 c 0,-1.11 -0.89,-2.012 -2,-2.012" /><path
         id="path182"
         style="fill:#e5e5e5;fill-opacity:1;fill-rule:nonzero;stroke:none"
         d="m 1546.61,475.059 h -50.77 c -2.21,0 -4.02,-1.77 -4.02,-3.981 v -50.777 c 0,-2.231 1.81,-4.031 4.02,-4.031 h 50.77 c 2.22,0 4.02,1.8 4.02,4.031 v 50.777 c 0,2.211 -1.8,3.981 -4.02,3.981 z m 0,-3.981 v -50.777 h -50.77 v 50.777 h 50.77" /><path
         id="path184"
         style="fill:#f3f2f2;fill-opacity:1;fill-rule:nonzero;stroke:none"
         d="m 1628.47,418.289 h -50.76 c -1.13,0 -2.02,0.902 -2.02,2.012 v 50.777 c 0,1.09 0.89,1.992 2.02,1.992 h 50.76 c 1.11,0 2,-0.902 2,-1.992 v -50.777 c 0,-1.11 -0.89,-2.012 -2,-2.012" /><path
         id="path186"
         style="fill:#e5e5e5;fill-opacity:1;fill-rule:nonzero;stroke:none"
         d="m 1628.47,475.059 h -50.76 c -2.22,0 -4.03,-1.77 -4.03,-3.981 v -50.777 c 0,-2.231 1.81,-4.031 4.03,-4.031 h 50.76 c 2.22,0 4.02,1.8 4.02,4.031 v 50.777 c 0,2.211 -1.8,3.981 -4.02,3.981 z m 0,-3.981 v -50.777 h -50.76 v 50.777 h 50.76" /><path
         id="path188"
         style="fill:#f3f2f2;fill-opacity:1;fill-rule:nonzero;stroke:none"
         d="m 1710.32,418.289 h -50.76 c -1.11,0 -2,0.902 -2,2.012 v 50.777 c 0,1.09 0.89,1.992 2,1.992 h 50.76 c 1.12,0 2,-0.902 2,-1.992 v -50.777 c 0,-1.11 -0.88,-2.012 -2,-2.012" /><path
         id="path190"
         style="fill:#e5e5e5;fill-opacity:1;fill-rule:nonzero;stroke:none"
         d="m 1710.32,475.059 h -50.76 c -2.22,0 -4.02,-1.77 -4.02,-3.981 v -50.777 c 0,-2.231 1.8,-4.031 4.02,-4.031 h 50.76 c 2.23,0 4.03,1.8 4.03,4.031 v 50.777 c 0,2.211 -1.8,3.981 -4.03,3.981 z m 0,-3.981 v -50.777 h -50.76 v 50.777 h 50.76" /><path
         id="path192"
         style="fill:#f3f2f2;fill-opacity:1;fill-rule:nonzero;stroke:none"
         d="m 1792.19,418.289 h -50.76 c -1.13,0 -2.02,0.902 -2.02,2.012 v 50.777 c 0,1.09 0.89,1.992 2.02,1.992 h 50.76 c 1.11,0 2,-0.902 2,-1.992 v -50.777 c 0,-1.11 -0.89,-2.012 -2,-2.012" /><path
         id="path194"
         style="fill:#e5e5e5;fill-opacity:1;fill-rule:nonzero;stroke:none"
         d="m 1792.19,475.059 h -50.76 c -2.23,0 -4.03,-1.77 -4.03,-3.981 v -50.777 c 0,-2.231 1.8,-4.031 4.03,-4.031 h 50.76 c 2.22,0 4.02,1.8 4.02,4.031 v 50.777 c 0,2.211 -1.8,3.981 -4.02,3.981 z m 0,-3.981 v -50.777 h -50.76 v 50.777 h 50.76" /><path
         id="path196"
         style="fill:#f3f2f2;fill-opacity:1;fill-rule:nonzero;stroke:none"
         d="m 1874.04,418.289 h -50.76 c -1.11,0 -2.01,0.902 -2.01,2.012 v 50.777 c 0,1.09 0.9,1.992 2.01,1.992 h 50.76 c 1.12,0 2,-0.902 2,-1.992 v -50.777 c 0,-1.11 -0.88,-2.012 -2,-2.012" /><path
         id="path198"
         style="fill:#e5e5e5;fill-opacity:1;fill-rule:nonzero;stroke:none"
         d="m 1874.04,475.059 h -50.76 c -2.22,0 -4.02,-1.77 -4.02,-3.981 v -50.777 c 0,-2.231 1.8,-4.031 4.02,-4.031 h 50.76 c 2.23,0 4.03,1.8 4.03,4.031 v 50.777 c 0,2.211 -1.8,3.981 -4.03,3.981 z m 0,-3.981 v -50.777 h -50.76 v 50.777 h 50.76" /><path
         id="path200"
         style="fill:#f3f2f2;fill-opacity:1;fill-rule:nonzero;stroke:none"
         d="m 1955.9,418.289 h -50.76 c -1.12,0 -2.01,0.902 -2.01,2.012 v 50.777 c 0,1.09 0.89,1.992 2.01,1.992 h 50.76 c 1.11,0 2.01,-0.902 2.01,-1.992 v -50.777 c 0,-1.11 -0.9,-2.012 -2.01,-2.012" /><path
         id="path202"
         style="fill:#e5e5e5;fill-opacity:1;fill-rule:nonzero;stroke:none"
         d="m 1955.9,475.059 h -50.76 c -2.22,0 -4.03,-1.77 -4.03,-3.981 v -50.777 c 0,-2.231 1.81,-4.031 4.03,-4.031 h 50.76 c 2.23,0 4.02,1.8 4.02,4.031 v 50.777 c 0,2.211 -1.79,3.981 -4.02,3.981 z m 0,-3.981 v -50.777 h -50.76 v 50.777 h 50.76" /><path
         id="path204"
         style="fill:#f3f2f2;fill-opacity:1;fill-rule:nonzero;stroke:none"
         d="m 1382.89,338.031 h -50.76 c -1.12,0 -2.01,0.879 -2.01,1.989 v 50.789 c 0,1.113 0.89,2.011 2.01,2.011 h 50.76 c 1.11,0 2,-0.898 2,-2.011 V 340.02 c 0,-1.11 -0.89,-1.989 -2,-1.989" /><path
         id="path206"
         style="fill:#e5e5e5;fill-opacity:1;fill-rule:nonzero;stroke:none"
         d="m 1382.89,394.809 h -50.76 c -2.22,0 -4.03,-1.778 -4.03,-4 V 340.02 c 0,-2.2 1.81,-4 4.03,-4 h 50.76 c 2.22,0 4.02,1.8 4.02,4 v 50.789 c 0,2.222 -1.8,4 -4.02,4 z m 0,-4 V 340.02 h -50.76 v 50.789 h 50.76" /><path
         id="path208"
         style="fill:#f3f2f2;fill-opacity:1;fill-rule:nonzero;stroke:none"
         d="m 1546.61,338.031 h -50.77 c -1.11,0 -2,0.879 -2,1.989 v 50.789 c 0,1.113 0.89,2.011 2,2.011 h 50.77 c 1.11,0 2,-0.898 2,-2.011 V 340.02 c 0,-1.11 -0.89,-1.989 -2,-1.989" /><path
         id="path210"
         style="fill:#e5e5e5;fill-opacity:1;fill-rule:nonzero;stroke:none"
         d="m 1546.61,394.809 h -50.77 c -2.21,0 -4.02,-1.778 -4.02,-4 V 340.02 c 0,-2.2 1.81,-4 4.02,-4 h 50.77 c 2.22,0 4.02,1.8 4.02,4 v 50.789 c 0,2.222 -1.8,4 -4.02,4 z m 0,-4 V 340.02 h -50.77 v 50.789 h 50.77" /><path
         id="path212"
         style="fill:#f3f2f2;fill-opacity:1;fill-rule:nonzero;stroke:none"
         d="m 1628.47,338.031 h -50.76 c -1.13,0 -2.02,0.879 -2.02,1.989 v 50.789 c 0,1.113 0.89,2.011 2.02,2.011 h 50.76 c 1.11,0 2,-0.898 2,-2.011 V 340.02 c 0,-1.11 -0.89,-1.989 -2,-1.989" /><path
         id="path214"
         style="fill:#e5e5e5;fill-opacity:1;fill-rule:nonzero;stroke:none"
         d="m 1628.47,394.809 h -50.76 c -2.22,0 -4.03,-1.778 -4.03,-4 V 340.02 c 0,-2.2 1.81,-4 4.03,-4 h 50.76 c 2.22,0 4.02,1.8 4.02,4 v 50.789 c 0,2.222 -1.8,4 -4.02,4 z m 0,-4 V 340.02 h -50.76 v 50.789 h 50.76" /><path
         id="path216"
         style="fill:#f3f2f2;fill-opacity:1;fill-rule:nonzero;stroke:none"
         d="m 1710.32,338.031 h -50.76 c -1.11,0 -2,0.879 -2,1.989 v 50.789 c 0,1.113 0.89,2.011 2,2.011 h 50.76 c 1.12,0 2,-0.898 2,-2.011 V 340.02 c 0,-1.11 -0.88,-1.989 -2,-1.989" /><path
         id="path218"
         style="fill:#e5e5e5;fill-opacity:1;fill-rule:nonzero;stroke:none"
         d="m 1710.32,394.809 h -50.76 c -2.22,0 -4.02,-1.778 -4.02,-4 V 340.02 c 0,-2.2 1.8,-4 4.02,-4 h 50.76 c 2.23,0 4.03,1.8 4.03,4 v 50.789 c 0,2.222 -1.8,4 -4.03,4 z m 0,-4 V 340.02 h -50.76 v 50.789 h 50.76" /><path
         id="path220"
         style="fill:#f3f2f2;fill-opacity:1;fill-rule:nonzero;stroke:none"
         d="m 1792.19,338.031 h -50.76 c -1.13,0 -2.02,0.879 -2.02,1.989 v 50.789 c 0,1.113 0.89,2.011 2.02,2.011 h 50.76 c 1.11,0 2,-0.898 2,-2.011 V 340.02 c 0,-1.11 -0.89,-1.989 -2,-1.989" /><path
         id="path222"
         style="fill:#e5e5e5;fill-opacity:1;fill-rule:nonzero;stroke:none"
         d="m 1792.19,394.809 h -50.76 c -2.23,0 -4.03,-1.778 -4.03,-4 V 340.02 c 0,-2.2 1.8,-4 4.03,-4 h 50.76 c 2.22,0 4.02,1.8 4.02,4 v 50.789 c 0,2.222 -1.8,4 -4.02,4 z m 0,-4 V 340.02 h -50.76 v 50.789 h 50.76" /><path
         id="path224"
         style="fill:#f3f2f2;fill-opacity:1;fill-rule:nonzero;stroke:none"
         d="m 1874.04,338.031 h -50.76 c -1.11,0 -2.01,0.879 -2.01,1.989 v 50.789 c 0,1.113 0.9,2.011 2.01,2.011 h 50.76 c 1.12,0 2,-0.898 2,-2.011 V 340.02 c 0,-1.11 -0.88,-1.989 -2,-1.989" /><path
         id="path226"
         style="fill:#e5e5e5;fill-opacity:1;fill-rule:nonzero;stroke:none"
         d="m 1874.04,394.809 h -50.76 c -2.22,0 -4.02,-1.778 -4.02,-4 V 340.02 c 0,-2.2 1.8,-4 4.02,-4 h 50.76 c 2.23,0 4.03,1.8 4.03,4 v 50.789 c 0,2.222 -1.8,4 -4.03,4 z m 0,-4 V 340.02 h -50.76 v 50.789 h 50.76" /><path
         id="path228"
         style="fill:#f3f2f2;fill-opacity:1;fill-rule:nonzero;stroke:none"
         d="m 1955.9,338.031 h -50.76 c -1.12,0 -2.01,0.879 -2.01,1.989 v 50.789 c 0,1.113 0.89,2.011 2.01,2.011 h 50.76 c 1.11,0 2.01,-0.898 2.01,-2.011 V 340.02 c 0,-1.11 -0.9,-1.989 -2.01,-1.989" /><path
         id="path230"
         style="fill:#e5e5e5;fill-opacity:1;fill-rule:nonzero;stroke:none"
         d="m 1955.9,394.809 h -50.76 c -2.22,0 -4.03,-1.778 -4.03,-4 V 340.02 c 0,-2.2 1.81,-4 4.03,-4 h 50.76 c 2.23,0 4.02,1.8 4.02,4 v 50.789 c 0,2.222 -1.79,4 -4.02,4 z m 0,-4 V 340.02 h -50.76 v 50.789 h 50.76" /><path
         id="path232"
         style="fill:#f3f2f2;fill-opacity:1;fill-rule:nonzero;stroke:none"
         d="m 2035.15,498.539 h -50.77 c -1.12,0 -2.01,0.902 -2.01,2.012 v 50.777 c 0,1.121 0.89,2 2.01,2 h 50.77 c 1.11,0 2,-0.879 2,-2 v -50.777 c 0,-1.11 -0.89,-2.012 -2,-2.012" /><path
         id="path234"
         style="fill:#e5e5e5;fill-opacity:1;fill-rule:nonzero;stroke:none"
         d="m 2035.15,555.34 h -50.77 c -2.21,0 -4.03,-1.801 -4.03,-4.012 v -50.777 c 0,-2.199 1.82,-4 4.03,-4 h 50.77 c 2.21,0 4.01,1.801 4.01,4 v 50.777 c 0,2.211 -1.8,4.012 -4.01,4.012 z m 0,-4.012 v -50.777 h -50.77 v 50.777 h 50.77" /><path
         id="path236"
         style="fill:#f3f2f2;fill-opacity:1;fill-rule:nonzero;stroke:none"
         d="m 2035.15,418.289 h -130 c -1.13,0 -2.02,0.902 -2.02,2.012 v 50.777 c 0,1.09 0.89,1.992 2.02,1.992 h 130 c 1.11,0 2,-0.902 2,-1.992 v -50.777 c 0,-1.11 -0.89,-2.012 -2,-2.012" /><path
         id="path238"
         style="fill:#e5e5e5;fill-opacity:1;fill-rule:nonzero;stroke:none"
         d="m 2035.15,475.059 h -130 c -2.22,0 -4.04,-1.77 -4.04,-3.981 v -50.777 c 0,-2.231 1.82,-4.031 4.04,-4.031 h 130 c 2.21,0 4.01,1.8 4.01,4.031 v 50.777 c 0,2.211 -1.8,3.981 -4.01,3.981 z m 0,-3.981 v -50.777 h -130 v 50.777 h 130" /><path
         id="path240"
         style="fill:#f3f2f2;fill-opacity:1;fill-rule:nonzero;stroke:none"
         d="m 2035.15,338.031 h -50.77 c -1.12,0 -2.01,0.879 -2.01,1.989 v 50.789 c 0,1.113 0.89,2.011 2.01,2.011 h 50.77 c 1.11,0 2,-0.898 2,-2.011 V 340.02 c 0,-1.11 -0.89,-1.989 -2,-1.989" /><path
         id="path242"
         style="fill:#e5e5e5;fill-opacity:1;fill-rule:nonzero;stroke:none"
         d="m 2035.15,394.809 h -50.77 c -2.21,0 -4.03,-1.778 -4.03,-4 V 340.02 c 0,-2.2 1.82,-4 4.03,-4 h 50.77 c 2.21,0 4.01,1.8 4.01,4 v 50.789 c 0,2.222 -1.8,4 -4.01,4 z m 0,-4 V 340.02 h -50.77 v 50.789 h 50.77" /><path
         id="path244"
         style="fill:#f3f2f2;fill-opacity:1;fill-rule:nonzero;stroke:none"
         d="m 1712.33,338.031 h -298.35 c -1.11,0 -2.01,0.879 -2.01,1.989 v 50.789 c 0,1.113 0.9,2.011 2.01,2.011 h 298.35 c 1.12,0 2.01,-0.898 2.01,-2.011 V 340.02 c 0,-1.11 -0.89,-1.989 -2.01,-1.989" /><path
         id="path246"
         style="fill:#e5e5e5;fill-opacity:1;fill-rule:nonzero;stroke:none"
         d="m 1712.33,394.809 h -298.35 c -2.21,0 -4.02,-1.778 -4.02,-4 V 340.02 c 0,-2.2 1.81,-4 4.02,-4 h 298.35 c 2.23,0 4.03,1.8 4.03,4 v 50.789 c 0,2.222 -1.8,4 -4.03,4 z m 0,-4 V 340.02 h -298.35 v 50.789 h 298.35" /><path
         id="path248"
         style="fill:#fefefe;fill-opacity:1;fill-rule:nonzero;stroke:none"
         d="m 2231.33,754.441 c -4.76,-10.882 -6.67,-14.902 -14.9,-14.902 H 1158.18 c -8.22,0 -9.43,3.473 -14.88,14.902 l -120.35,415.239 c 0,8.24 6.67,14.88 14.89,14.88 h 1295.21 c 8.22,0 14.89,-6.64 14.89,-14.88 L 2231.33,754.441" /><path
         id="path250"
         style="fill:#525356;fill-opacity:1;fill-rule:nonzero;stroke:none"
         d="m 2196.09,783.328 c -3.44,-8.168 -4.82,-11.199 -10.76,-11.199 h -988.99 c -5.94,0 -6.81,2.621 -10.76,11.199 l -87.07,349.062 c 0,6.17 4.82,11.17 10.76,11.17 h 1160.42 c 5.95,0 10.78,-5 10.78,-11.17 l -84.38,-349.062" /><path
         id="path252"
         style="fill:#646567;fill-opacity:1;fill-rule:nonzero;stroke:none"
         d="m 1532.64,772.129 h -336.3 c -5.94,0 -6.81,2.621 -10.76,11.199 l -87.07,349.062 c 0,6.17 4.82,11.17 10.76,11.17 h 846.81 C 1809.63,1026.12 1667.72,903.172 1532.64,772.129" /><path
         id="path254"
         style="fill:#ffffff;fill-opacity:1;fill-rule:nonzero;stroke:none"
         d="M 1110.2,2.94141 1192.58,67.1719 1045.66,255.551 956.895,186.352 1099.95,2.94141 h 10.25" /><path
         id="path256"
         style="fill:#f6c400;fill-opacity:1;fill-rule:nonzero;stroke:none"
         d="m 1127.76,2.94141 37,30.88669 L 1006.53,236.699 706.711,2.94141 h 421.049" /><path
         id="path258"
         style="fill:#f7d4b2;fill-opacity:1;fill-rule:nonzero;stroke:none"
         d="m 1203.44,88.7617 c 0,0 15.94,-16.7226 71.12,5.9297 55.19,22.6176 229.17,79.6876 229.17,79.6876 l -1.54,48.652 -127.74,-25.312 214.59,161.89 -29.98,45.43 -176.04,-128.18 176.69,158.18 -30.38,38.949 -195.45,-137.867 164.53,145.777 -32.19,37.563 L 1291.89,393.719 1414.74,507 1377.42,549.238 1084.29,303.172 c 0,0 -13.57,-23.692 -10.81,-47.774 l -15.09,-16.136 126.42,-162.1331 18.63,11.6328" /><path
         id="path260"
         style="fill:#f6d3a3;fill-opacity:1;fill-rule:nonzero;stroke:none"
         d="m 1564.47,470.02 c -8.41,10.789 -24.12,12.558 -35.14,3.968 -11,-8.59 -13.11,-24.258 -4.69,-35.039 8.39,-10.777 24.11,-12.558 35.12,-3.961 11,8.571 13.11,24.274 4.71,35.032" /><path
         id="path262"
         style="fill:#f6d3a3;fill-opacity:1;fill-rule:nonzero;stroke:none"
         d="m 1502.6,516.469 c -8.4,10.761 -24.14,12.519 -35.13,3.953 -11.01,-8.602 -13.13,-24.262 -4.74,-35.043 8.41,-10.777 24.14,-12.559 35.15,-3.969 11.01,8.578 13.12,24.281 4.72,35.059" /><path
         id="path264"
         style="fill:#f6d3a3;fill-opacity:1;fill-rule:nonzero;stroke:none"
         d="m 1419.61,546.41 c -9.59,12.27 -27.49,14.281 -40.04,4.508 -12.54,-9.758 -14.95,-27.648 -5.37,-39.918 9.56,-12.262 27.48,-14.301 40.02,-4.512 12.55,9.782 14.95,27.66 5.39,39.922" /><path
         id="path266"
         style="fill:#f6d3a3;fill-opacity:1;fill-rule:nonzero;stroke:none"
         d="m 1596.46,399.609 c -9.16,11.782 -26.32,13.7 -38.34,4.34 -12.02,-9.371 -14.32,-26.48 -5.15,-38.238 9.17,-11.762 26.34,-13.711 38.34,-4.34 12.02,9.359 14.32,26.488 5.15,38.238" /><path
         id="path268"
         style="fill:#f6d3a3;fill-opacity:1;fill-rule:nonzero;stroke:none"
         d="m 1520.7,213.461 c -8.16,10.469 -23.48,12.211 -34.2,3.848 -10.72,-8.36 -12.77,-23.629 -4.59,-34.137 8.17,-10.473 23.5,-12.211 34.21,-3.852 10.73,8.36 12.77,23.629 4.58,34.141" /><path
         id="path270"
         style="fill:#ffffff;fill-opacity:1;fill-rule:nonzero;stroke:none"
         d="m 1121.55,36.2695 c 0,-5.5781 -4.53,-10.1093 -10.11,-10.1093 -5.59,0 -10.12,4.5312 -10.12,10.1093 0,5.6094 4.53,10.1211 10.12,10.1211 5.58,0 10.11,-4.5117 10.11,-10.1211" /><path
         id="path272"
         style="fill:#ffffff;fill-opacity:1;fill-rule:nonzero;stroke:none"
         d="m 1099.06,67.0195 c 0,-5.5898 -4.53,-10.1211 -10.12,-10.1211 -5.59,0 -10.12,4.5313 -10.12,10.1211 0,5.5821 4.53,10.1094 10.12,10.1094 5.59,0 10.12,-4.5273 10.12,-10.1094" /><path
         id="path274"
         style="fill:#06c1b9;fill-opacity:1;fill-rule:nonzero;stroke:none"
         d="m 1219.69,1681.46 c 0,-118.73 -96.25,-214.97 -214.97,-214.97 -118.728,0 -214.974,96.24 -214.974,214.97 0,118.73 96.246,214.97 214.974,214.97 118.72,0 214.97,-96.24 214.97,-214.97" /><path
         id="path276"
         style="fill:#ffffff;fill-opacity:1;fill-rule:nonzero;stroke:none"
         d="m 1219.69,1681.46 h -7.5 c -0.01,-57.32 -23.21,-109.14 -60.77,-146.71 -37.57,-37.55 -89.39,-60.76 -146.7,-60.76 -57.318,0 -109.138,23.21 -146.708,60.76 -37.555,37.57 -60.762,89.39 -60.766,146.71 0.004,57.32 23.211,109.14 60.766,146.71 37.57,37.55 89.39,60.76 146.708,60.76 57.31,0 109.13,-23.21 146.7,-60.76 37.56,-37.57 60.76,-89.39 60.77,-146.71 h 7.5 7.5 c -0.01,122.88 -99.6,222.47 -222.47,222.47 -122.872,0 -222.47,-99.59 -222.474,-222.47 0.004,-122.87 99.602,-222.46 222.474,-222.47 122.87,0.01 222.46,99.6 222.47,222.47 h -7.5" /><path
         id="path278"
         style="fill:#f4655f;fill-opacity:1;fill-rule:nonzero;stroke:none"
         d="m 2623.87,1919.35 c 0,-118.73 -96.25,-214.97 -214.97,-214.97 -118.72,0 -214.97,96.24 -214.97,214.97 0,118.73 96.25,214.97 214.97,214.97 118.72,0 214.97,-96.24 214.97,-214.97" /><path
         id="path280"
         style="fill:#ffffff;fill-opacity:1;fill-rule:nonzero;stroke:none"
         d="m 2623.87,1919.35 h -7.5 c -0.01,-57.32 -23.21,-109.14 -60.77,-146.71 -37.57,-37.55 -89.39,-60.76 -146.7,-60.76 -57.32,0 -109.14,23.21 -146.71,60.76 -37.55,37.57 -60.76,89.39 -60.76,146.71 0,57.32 23.21,109.14 60.76,146.71 37.57,37.55 89.39,60.76 146.71,60.76 57.31,0 109.13,-23.21 146.7,-60.76 37.56,-37.57 60.76,-89.39 60.77,-146.71 h 7.5 7.5 c -0.01,122.88 -99.61,222.47 -222.47,222.47 -122.87,0 -222.47,-99.59 -222.47,-222.47 0,-122.87 99.6,-222.46 222.47,-222.47 122.86,0.01 222.46,99.6 222.47,222.47 h -7.5" /><path
         id="path282"
         style="fill:#06c1b9;fill-opacity:1;fill-rule:nonzero;stroke:none"
         d="m 2996.87,674.422 c 0,-118.731 -96.24,-214.961 -214.98,-214.961 -118.72,0 -214.96,96.23 -214.96,214.961 0,118.726 96.24,214.976 214.96,214.976 118.74,0 214.98,-96.25 214.98,-214.976" /><path
         id="path284"
         style="fill:#ffffff;fill-opacity:1;fill-rule:nonzero;stroke:none"
         d="m 2996.87,674.422 h -7.51 c 0,-57.32 -23.2,-109.141 -60.76,-146.703 -37.57,-37.547 -89.39,-60.758 -146.71,-60.758 -57.31,0 -109.13,23.211 -146.69,60.758 -37.56,37.562 -60.76,89.383 -60.77,146.703 0.01,57.316 23.21,109.137 60.77,146.707 37.56,37.562 89.38,60.769 146.69,60.769 57.32,0 109.14,-23.207 146.71,-60.769 37.56,-37.57 60.76,-89.391 60.76,-146.707 h 7.51 7.5 c -0.01,122.867 -99.6,222.476 -222.48,222.476 -122.86,0 -222.45,-99.609 -222.46,-222.476 0.01,-122.883 99.6,-222.461 222.46,-222.461 122.88,0 222.47,99.578 222.48,222.461 h -7.5" /><path
         id="path286"
         style="fill:#f4655f;fill-opacity:1;fill-rule:nonzero;stroke:none"
         d="m 849.824,772.129 c 0,-118.731 -96.246,-214.981 -214.969,-214.981 -118.726,0 -214.972,96.25 -214.972,214.981 0,118.73 96.246,214.973 214.972,214.973 118.723,0 214.969,-96.243 214.969,-214.973" /><path
         id="path288"
         style="fill:#ffffff;fill-opacity:1;fill-rule:nonzero;stroke:none"
         d="m 849.824,772.129 h -7.5 C 842.32,714.82 819.113,662.988 781.559,625.422 743.988,587.871 692.168,564.66 634.855,564.648 c -57.316,0.012 -109.136,23.223 -146.707,60.774 -37.554,37.566 -60.761,89.398 -60.765,146.707 0.004,57.32 23.211,109.141 60.765,146.711 37.571,37.551 89.387,60.75 146.707,60.762 57.313,-0.012 109.133,-23.211 146.704,-60.762 37.554,-37.57 60.761,-89.391 60.765,-146.711 h 7.5 7.5 C 857.32,895.012 757.723,994.59 634.855,994.602 511.984,994.59 412.387,895.012 412.383,772.129 412.387,649.262 511.984,549.66 634.855,549.648 757.723,549.66 857.32,649.262 857.324,772.129 h -7.5" /><path
         id="path290"
         style="fill:#f6c400;fill-opacity:1;fill-rule:nonzero;stroke:none"
         d="m 625.613,1377.23 c 0,-68.87 -55.828,-124.71 -124.707,-124.71 -68.875,0 -124.707,55.84 -124.707,124.71 0,68.88 55.832,124.71 124.707,124.71 68.879,0 124.707,-55.83 124.707,-124.71" /><path
         id="path292"
         style="fill:#ffffff;fill-opacity:1;fill-rule:nonzero;stroke:none"
         d="m 625.613,1377.23 h -3.75 c 0,-33.41 -13.531,-63.63 -35.425,-85.53 -21.899,-21.89 -52.114,-35.42 -85.532,-35.42 -33.414,0 -63.629,13.53 -85.527,35.42 -21.895,21.9 -35.426,52.12 -35.43,85.53 0.004,33.42 13.535,63.63 35.43,85.53 21.898,21.9 52.113,35.43 85.527,35.43 33.418,0 63.633,-13.53 85.532,-35.43 21.894,-21.9 35.425,-52.11 35.425,-85.53 h 3.75 3.75 c 0,70.95 -57.508,128.46 -128.457,128.46 -70.945,0 -128.453,-57.51 -128.457,-128.46 0.004,-70.95 57.512,-128.45 128.457,-128.46 70.949,0.01 128.457,57.51 128.457,128.46 h -3.75" /><path
         id="path294"
         style="fill:#f6c400;fill-opacity:1;fill-rule:nonzero;stroke:none"
         d="m 499.031,2009.61 c 0,-68.87 -55.828,-124.7 -124.707,-124.7 -68.875,0 -124.707,55.83 -124.707,124.7 0,68.88 55.832,124.71 124.707,124.71 68.879,0 124.707,-55.83 124.707,-124.71" /><path
         id="path296"
         style="fill:#ffffff;fill-opacity:1;fill-rule:nonzero;stroke:none"
         d="m 499.031,2009.61 h -3.75 c 0,-33.41 -13.531,-63.63 -35.426,-85.53 -21.898,-21.89 -52.113,-35.42 -85.531,-35.42 -33.414,0 -63.629,13.53 -85.527,35.42 -21.895,21.9 -35.426,52.12 -35.43,85.53 0.004,33.42 13.535,63.64 35.43,85.53 21.898,21.9 52.113,35.43 85.527,35.43 33.418,0 63.633,-13.53 85.531,-35.43 21.895,-21.89 35.426,-52.11 35.426,-85.53 h 3.75 3.75 c 0,70.95 -57.508,128.46 -128.457,128.46 -70.945,0 -128.453,-57.51 -128.457,-128.46 0.004,-70.95 57.512,-128.45 128.457,-128.45 70.949,0 128.457,57.5 128.457,128.45 h -3.75" /><path
         id="path298"
         style="fill:#f6c400;fill-opacity:1;fill-rule:nonzero;stroke:none"
         d="m 1860.03,2009.61 c 0,-68.87 -55.83,-124.7 -124.71,-124.7 -68.87,0 -124.7,55.83 -124.7,124.7 0,68.88 55.83,124.71 124.7,124.71 68.88,0 124.71,-55.83 124.71,-124.71" /><path
         id="path300"
         style="fill:#ffffff;fill-opacity:1;fill-rule:nonzero;stroke:none"
         d="m 1860.03,2009.61 h -3.75 c 0,-33.41 -13.53,-63.63 -35.43,-85.53 -21.9,-21.89 -52.11,-35.42 -85.53,-35.42 -33.41,0 -63.63,13.53 -85.53,35.42 -21.89,21.9 -35.42,52.12 -35.42,85.53 0,33.42 13.53,63.64 35.42,85.53 21.9,21.9 52.12,35.43 85.53,35.43 33.42,0 63.63,-13.53 85.53,-35.43 21.9,-21.89 35.43,-52.11 35.43,-85.53 h 3.75 3.75 c 0,70.95 -57.51,128.46 -128.46,128.46 -70.95,0 -128.45,-57.51 -128.45,-128.46 0,-70.95 57.5,-128.45 128.45,-128.45 70.95,0 128.46,57.5 128.46,128.45 h -3.75" /><path
         id="path302"
         style="fill:#06c1b9;fill-opacity:1;fill-rule:nonzero;stroke:none"
         d="m 3061.24,1704.38 c 0,-68.88 -55.83,-124.71 -124.71,-124.71 -68.87,0 -124.7,55.83 -124.7,124.71 0,68.88 55.83,124.71 124.7,124.71 68.88,0 124.71,-55.83 124.71,-124.71" /><path
         id="path304"
         style="fill:#ffffff;fill-opacity:1;fill-rule:nonzero;stroke:none"
         d="m 3061.24,1704.38 h -3.75 c 0,-33.42 -13.53,-63.63 -35.43,-85.53 -21.9,-21.89 -52.11,-35.42 -85.53,-35.42 -33.41,0 -63.63,13.52 -85.53,35.42 -21.89,21.9 -35.42,52.11 -35.42,85.53 0,33.42 13.53,63.63 35.42,85.53 21.9,21.89 52.12,35.43 85.53,35.43 33.42,0 63.63,-13.54 85.53,-35.43 21.9,-21.9 35.43,-52.11 35.43,-85.53 h 3.75 3.75 c 0,70.95 -57.51,128.46 -128.46,128.46 -70.95,0 -128.45,-57.51 -128.45,-128.46 0,-70.95 57.5,-128.45 128.45,-128.46 70.95,0.01 128.46,57.51 128.46,128.46 h -3.75" /><path
         id="path306"
         style="fill:#f6c400;fill-opacity:1;fill-rule:nonzero;stroke:none"
         d="m 2853.98,1240 c 0,-68.88 -55.83,-124.72 -124.7,-124.72 -68.88,0 -124.71,55.84 -124.71,124.72 0,68.88 55.83,124.7 124.71,124.7 68.87,0 124.7,-55.82 124.7,-124.7" /><path
         id="path308"
         style="fill:#ffffff;fill-opacity:1;fill-rule:nonzero;stroke:none"
         d="m 2853.98,1240 h -3.75 c 0,-33.42 -13.53,-63.63 -35.42,-85.54 -21.9,-21.9 -52.12,-35.43 -85.53,-35.43 -33.42,0 -63.63,13.53 -85.53,35.43 -21.9,21.91 -35.43,52.12 -35.43,85.54 0,33.42 13.53,63.63 35.43,85.53 21.9,21.89 52.11,35.42 85.53,35.42 33.41,0 63.63,-13.53 85.53,-35.42 21.89,-21.9 35.42,-52.11 35.42,-85.53 h 3.75 3.75 c 0,70.95 -57.5,128.45 -128.45,128.45 -70.95,0 -128.46,-57.5 -128.46,-128.45 0,-70.95 57.51,-128.47 128.46,-128.47 70.95,0 128.45,57.52 128.45,128.47 h -3.75" /><path
         id="path310"
         style="fill:#ffffff;fill-opacity:1;fill-rule:nonzero;stroke:none"
         d="m 370.199,1782.13 11.379,-27.61 27.617,-11.38 -27.617,-11.38 -11.379,-27.62 -11.375,27.62 -27.617,11.38 27.617,11.38 11.375,27.61" /><path
         id="path312"
         style="fill:#ffffff;fill-opacity:1;fill-rule:nonzero;stroke:none"
         d="m 1012.4,2266.53 11.38,-27.62 27.62,-11.37 -27.62,-11.38 -11.38,-27.62 -11.37,27.62 -27.624,11.38 27.624,11.37 11.37,27.62" /><path
         id="path314"
         style="fill:#ffffff;fill-opacity:1;fill-rule:nonzero;stroke:none"
         d="m 998.215,592.309 11.375,-27.618 27.62,-11.363 -27.62,-11.387 -11.375,-27.621 -11.379,27.621 -27.617,11.387 27.617,11.363 11.379,27.618" /><path
         id="path316"
         style="fill:#ffffff;fill-opacity:1;fill-rule:nonzero;stroke:none"
         d="m 388.813,468.539 11.378,-27.621 27.618,-11.379 -27.618,-11.367 -11.378,-27.621 -11.375,27.621 -27.618,11.367 27.618,11.379 11.375,27.621" /><path
         id="path318"
         style="fill:#ffffff;fill-opacity:1;fill-rule:nonzero;stroke:none"
         d="m 211.086,778.52 11.375,-27.622 27.617,-11.359 -27.617,-11.391 -11.375,-27.617 -11.379,27.617 -27.617,11.391 27.617,11.359 11.379,27.622" /><path
         id="path320"
         style="fill:#ffffff;fill-opacity:1;fill-rule:nonzero;stroke:none"
         d="m 2744.3,237.309 11.37,-27.618 27.62,-11.359 -27.62,-11.391 -11.37,-27.621 -11.38,27.621 -27.62,11.391 27.62,11.359 11.38,27.618" /><path
         id="path322"
         style="fill:#ffffff;fill-opacity:1;fill-rule:nonzero;stroke:none"
         d="m 3174.13,811.121 11.37,-27.621 27.62,-11.371 -27.62,-11.379 -11.37,-27.621 -11.39,27.621 -27.61,11.379 27.61,11.371 11.39,27.621" /><path
         id="path324"
         style="fill:#ffffff;fill-opacity:1;fill-rule:nonzero;stroke:none"
         d="m 2996.87,1203.55 11.38,-27.62 27.62,-11.39 -27.62,-11.37 -11.38,-27.62 -11.37,27.62 -27.62,11.37 27.62,11.39 11.37,27.62" /><path
         id="path326"
         style="fill:#ffffff;fill-opacity:1;fill-rule:nonzero;stroke:none"
         d="m 3151.5,1935.43 11.38,-27.62 27.62,-11.38 -27.62,-11.38 -11.38,-27.61 -11.37,27.61 -27.62,11.38 27.62,11.38 11.37,27.62" /><path
         id="path328"
         style="fill:#ffffff;fill-opacity:1;fill-rule:nonzero;stroke:none"
         d="m 2030.45,2021.85 11.38,-27.62 27.61,-11.37 -27.61,-11.38 -11.38,-27.62 -11.38,27.62 -27.61,11.38 27.61,11.37 11.38,27.62" /><path
         id="path330"
         style="fill:#ffffff;fill-opacity:1;fill-rule:nonzero;stroke:none"
         d="m 2418.83,811.121 11.37,-27.621 27.61,-11.371 -27.61,-11.379 -11.37,-27.621 -11.39,27.621 -27.62,11.379 27.62,11.371 11.39,27.621" /><path
         id="path332"
         style="fill:#ffffff;fill-opacity:1;fill-rule:nonzero;stroke:none"
         d="m 2810.14,2188.54 24.8,-60.22 60.23,-24.8 -60.23,-24.81 -24.8,-60.21 -24.81,60.21 -60.21,24.81 60.21,24.8 24.81,60.22" /><path
         id="path334"
         style="fill:#ffffff;fill-opacity:1;fill-rule:nonzero;stroke:none"
         d="m 2988.88,337.43 24.8,-60.219 60.22,-24.801 -60.22,-24.808 -24.8,-60.211 -24.81,60.211 -60.21,24.808 60.21,24.801 24.81,60.219" /><path
         id="path336"
         style="fill:#ffffff;fill-opacity:1;fill-rule:nonzero;stroke:none"
         d="m 602.566,401.629 24.805,-60.219 60.219,-24.801 -60.219,-24.808 -24.805,-60.211 -24.8,60.211 -60.215,24.808 60.215,24.801 24.8,60.219" /><path
         id="path338"
         style="fill:#ffffff;fill-opacity:1;fill-rule:nonzero;stroke:none"
         d="m 211.086,1742.13 24.805,-60.22 60.214,-24.8 -60.214,-24.81 -24.805,-60.21 -24.809,60.21 -60.214,24.81 60.214,24.8 24.809,60.22" /><path
         id="path340"
         style="fill:#ffffff;fill-opacity:1;fill-rule:nonzero;stroke:none"
         d="m 1956.08,688.48 c 0,-12.621 -10.22,-22.832 -22.84,-22.832 h -487.5 c -12.62,0 -22.85,10.211 -22.85,22.832 0,12.622 10.23,22.848 22.85,22.848 h 487.5 c 12.62,0 22.84,-10.226 22.84,-22.848" /><path
         id="path342"
         style="fill:#ffffff;fill-opacity:1;fill-rule:nonzero;stroke:none"
         d="m 2175.8,226.57 -34.35,107.2 227.5,72.902 34.37,-107.192" /><path
         id="path344"
         style="fill:#f6c400;fill-opacity:1;fill-rule:nonzero;stroke:none"
         d="M 2508.04,2.94141 2390.66,369.07 l -245,-78.519 87.66,-287.60959 h 274.72" /><path
         id="path346"
         style="fill:#f7d4b2;fill-opacity:1;fill-rule:nonzero;stroke:none"
         d="m 2144.63,357.719 c 0,0 -22.58,-4.84 -55.41,44.961 -32.86,49.769 -144.49,194.922 -144.49,194.922 l 28.68,39.339 91.29,-92.871 -86.13,254.629 50.36,20.66 73.27,-205.078 -6.3,64.61 47.04,15.078 33.24,-58.379 -9.25,57.23 50.59,16.481 25.79,-49.781 -4.91,24.082 54.63,13.886 70.83,-229.707 c 0,0 -2.14,-27.23 -17.98,-45.57 l 3.38,-21.832 -195.78,-62.758 -8.85,20.098" /><path
         id="path348"
         style="fill:#f7d4b2;fill-opacity:1;fill-rule:nonzero;stroke:none"
         d="m 2111.66,710.469 c 13.02,4.16 27.01,-3.199 31.28,-16.5 4.25,-13.297 -2.83,-27.438 -15.87,-31.617 -12.99,-4.161 -26.99,3.218 -31.24,16.519 -4.27,13.277 2.83,27.418 15.83,31.598" /><path
         id="path350"
         style="fill:#f7d4b2;fill-opacity:1;fill-rule:nonzero;stroke:none"
         d="m 2182.95,723.738 c 13,4.16 30.33,-1.16 34.57,-14.437 4.26,-13.301 -6.13,-29.531 -19.15,-33.711 -13.02,-4.16 -27.01,3.219 -31.27,16.519 -4.27,13.289 2.83,27.45 15.85,31.629" /><path
         id="path352"
         style="fill:#f7d4b2;fill-opacity:1;fill-rule:nonzero;stroke:none"
         d="m 2256.58,718.891 c 14.83,4.75 30.74,-3.672 35.62,-18.813 4.85,-15.148 -4.31,-25.148 -19.13,-29.879 -14.83,-4.75 -29.67,-2.461 -34.53,12.68 -4.86,15.152 3.23,31.269 18.04,36.012" /><path
         id="path354"
         style="fill:#f7d4b2;fill-opacity:1;fill-rule:nonzero;stroke:none"
         d="m 1994.98,835.941 c 14.2,4.571 29.46,-3.511 34.12,-18 4.64,-14.523 -3.08,-29.972 -17.29,-34.523 -14.2,-4.547 -29.49,3.523 -34.11,18.012 -4.67,14.511 3.08,29.961 17.28,34.511" /><path
         id="path356"
         style="fill:#f7d4b2;fill-opacity:1;fill-rule:nonzero;stroke:none"
         d="m 1952.71,639.461 c 12.66,4.039 26.29,-3.172 30.43,-16.102 4.16,-12.918 -2.75,-26.711 -15.43,-30.781 -12.64,-4.058 -26.28,3.152 -30.42,16.102 -4.16,12.929 2.75,26.699 15.42,30.781" /><path
         id="path358"
         style="fill:#ffffff;fill-opacity:1;fill-rule:nonzero;stroke:none"
         d="m 2182.73,268.23 c -3.13,-4.609 -1.94,-10.921 2.67,-14.058 4.61,-3.152 10.91,-1.961 14.06,2.648 3.16,4.629 1.96,10.918 -2.66,14.059 -4.62,3.172 -10.91,1.98 -14.07,-2.649" /><path
         id="path360"
         style="fill:#ffffff;fill-opacity:1;fill-rule:nonzero;stroke:none"
         d="m 2218.63,280.961 c -3.14,-4.609 -1.95,-10.902 2.68,-14.063 4.61,-3.136 10.9,-1.949 14.04,2.661 3.17,4.613 1.96,10.91 -2.64,14.062 -4.63,3.16 -10.93,1.949 -14.08,-2.66" /><path
         id="path362"
         style="fill:#ffffff;fill-opacity:1;fill-rule:nonzero;stroke:none"
         d="m 1365.88,1293.34 h 646.211 v 479.605 H 1365.88 Z" /><path
         id="path364"
         style="fill:#ff6057;fill-opacity:1;fill-rule:nonzero;stroke:none"
         d="m 2012.09,1293.23 h -646.21 v 85.32 h 646.21 v -85.32" /><path
         id="path366"
         style="fill:#383a47;fill-opacity:1;fill-rule:nonzero;stroke:none"
         d="m 1970.14,1327.89 h -561.48 v 12.09 h 561.48 v -12.09" /><path
         id="path368"
         style="fill:#e2e9ec;fill-opacity:1;fill-rule:nonzero;stroke:none"
         d="m 1732.73,1327.89 h -324.07 v 12.09 h 324.07 v -12.09" /><path
         id="path370"
         style="fill:#f2f3f4;fill-opacity:1;fill-rule:nonzero;stroke:none"
         d="m 1648.99,1412.13 h -238.27 l 185.56,252.87 134,-172.06 -81.29,-80.81" /><path
         id="path372"
         style="fill:#f2f3f4;fill-opacity:1;fill-rule:nonzero;stroke:none"
         d="m 1976.84,1412.13 h -327.85 l 81.29,80.81 95.25,94.69 151.31,-175.5" /><path
         id="path374"
         style="fill:#f2f3f4;fill-opacity:1;fill-rule:nonzero;stroke:none"
         d="m 1880.74,1639.04 c -23.38,0 -42.32,18.98 -42.32,42.42 0,23.44 18.94,42.43 42.32,42.43 23.37,0 42.34,-18.99 42.34,-42.43 0,-23.44 -18.97,-42.42 -42.34,-42.42" /><path
         id="path376"
         style="fill:#ff6057;fill-opacity:1;fill-rule:nonzero;stroke:none"
         d="m 1662.4,1537.32 c 0,-7.75 5.41,-10.78 12,-6.74 l 62.63,38.24 c 6.6,4.04 6.6,10.65 0,14.65 l -62.63,38.26 c -6.59,4.03 -12,0.99 -12,-6.73 v -77.68" /><path
         id="path378"
         style="fill:#ff6057;fill-opacity:1;fill-rule:nonzero;stroke:none"
         d="m 1688.98,1678.57 c -56.47,0 -102.4,-45.96 -102.4,-102.42 0,-56.48 45.93,-102.4 102.4,-102.4 56.47,0 102.41,45.92 102.41,102.4 0,56.46 -45.94,102.42 -102.41,102.42 z m 0,-213.79 c -61.4,0 -111.37,49.95 -111.37,111.37 0,61.4 49.97,111.37 111.37,111.37 61.41,0 111.37,-49.97 111.37,-111.37 0,-61.42 -49.96,-111.37 -111.37,-111.37" /><path
         id="path380"
         style="fill:#e2e9ec;fill-opacity:1;fill-rule:nonzero;stroke:none"
         d="m 1749.73,1333.62 c 0,-9.39 -7.6,-17 -17,-17 -9.39,0 -17.01,7.61 -17.01,17 0,9.4 7.62,17.02 17.01,17.02 9.4,0 17,-7.62 17,-17.02" /><path
         id="path382"
         style="fill:#ffffff;fill-opacity:1;fill-rule:nonzero;stroke:none"
         d="m 500.906,1369.98 45.102,-45.12 c 1.957,-1.95 5.371,-1.95 7.32,0 2.016,2.03 2.016,5.31 0,7.32 l -45.105,45.12 45.105,45.1 c 2.016,2.01 2.016,5.31 0,7.32 -1.937,1.96 -5.348,1.96 -7.32,0 l -45.102,-45.11 -45.105,45.11 c -1.961,1.96 -5.367,1.96 -7.324,0 -2.012,-2.01 -2.012,-5.31 0,-7.32 l 45.109,-45.1 -45.109,-45.12 c -2.012,-2.01 -2.012,-5.29 0,-7.32 1.957,-1.95 5.363,-1.95 7.336,0 z m 48.762,-54.34 c -3.441,0 -6.672,1.35 -9.105,3.77 l -39.657,39.67 -39.652,-39.67 c -4.875,-4.86 -13.356,-4.86 -18.227,0 -5.007,5.02 -5.007,13.2 0,18.22 l 39.661,39.67 -39.661,39.65 c -5.007,5.02 -5.007,13.2 0,18.22 4.871,4.87 13.352,4.87 18.211,0 l 39.668,-39.65 39.657,39.65 c 4.875,4.87 13.359,4.87 18.222,0 5.016,-5.02 5.016,-13.2 0,-18.22 l -39.652,-39.65 39.652,-39.67 c 5.016,-5.02 5.016,-13.2 0,-18.22 -2.437,-2.42 -5.68,-3.77 -9.117,-3.77" /><path
         id="path384"
         style="fill:#ffffff;fill-opacity:1;fill-rule:nonzero;stroke:none"
         d="m 309.984,2006.41 c -1.836,0 -3.539,-0.72 -4.832,-2 -2.668,-2.68 -2.668,-7.01 -0.007,-9.68 l 48.257,-48.28 c 1.286,-1.26 3.028,-2 4.84,-2 l 0.27,0.01 c 1.953,0.09 3.75,0.99 4.968,2.45 l 80.45,96.54 c 1.175,1.41 1.718,3.18 1.562,5 -0.164,1.81 -1.035,3.46 -2.429,4.62 -2.825,2.38 -7.301,1.93 -9.625,-0.87 l -75.657,-90.78 -42.972,42.99 c -1.274,1.28 -2.989,2 -4.825,2 z m 48.258,-72.13 c -4.48,0 -8.883,1.82 -12.035,4.99 l -48.262,48.27 c -6.632,6.64 -6.632,17.44 0.028,24.06 6.406,6.42 17.617,6.42 24.023,0 l 35.09,-35.12 68.523,82.23 c 3.243,3.88 8.02,6.12 13.079,6.12 3.964,0 7.839,-1.41 10.886,-3.95 3.489,-2.91 5.625,-7 6.035,-11.52 0.411,-4.52 -0.957,-8.93 -3.867,-12.42 l -80.449,-96.55 c -3.047,-3.65 -7.527,-5.87 -12.285,-6.09 l -0.766,-0.02" /><path
         id="path386"
         style="fill:#ffffff;fill-opacity:1;fill-rule:nonzero;stroke:none"
         d="m 2697.07,761.781 c -7.15,0 -12.96,-5.972 -12.96,-13.32 v -182.77 l 38.92,43.379 c 3.45,3.508 7.93,5.371 12.46,5.371 h 136.87 c 7.14,0 12.97,5.981 12.97,13.321 v 120.699 c 0,7.348 -5.83,13.32 -12.97,13.32 z M 2681,546.199 c -6.21,0 -11.26,5.063 -11.26,11.289 v 190.973 c 0,15.277 12.25,27.699 27.33,27.699 h 175.29 c 15.07,0 27.34,-12.422 27.34,-27.699 V 627.762 c 0,-15.25 -12.27,-27.684 -27.34,-27.684 h -136.87 l -2.01,-0.879 -44.32,-49.41 c -2.35,-2.379 -5.2,-3.59 -8.16,-3.59" /><path
         id="path388"
         style="fill:#ffffff;fill-opacity:1;fill-rule:nonzero;stroke:none"
         d="m 2744.3,688.129 c 0,-7.438 -6.02,-13.481 -13.49,-13.481 -7.45,0 -13.47,6.043 -13.47,13.481 0,7.441 6.02,13.5 13.47,13.5 7.47,0 13.49,-6.059 13.49,-13.5" /><path
         id="path390"
         style="fill:#ffffff;fill-opacity:1;fill-rule:nonzero;stroke:none"
         d="m 2798.19,688.129 c 0,-7.438 -6.02,-13.461 -13.47,-13.461 -7.43,0 -13.46,6.023 -13.46,13.461 0,7.422 6.03,13.48 13.46,13.48 7.45,0 13.47,-6.058 13.47,-13.48" /><path
         id="path392"
         style="fill:#ffffff;fill-opacity:1;fill-rule:nonzero;stroke:none"
         d="m 2852.09,688.129 c 0,-7.438 -6.03,-13.461 -13.48,-13.461 -7.42,0 -13.44,6.023 -13.44,13.461 0,7.422 6.02,13.48 13.44,13.48 7.45,0 13.48,-6.058 13.48,-13.48" /><path
         id="path394"
         style="fill:#ffffff;fill-opacity:1;fill-rule:nonzero;stroke:none"
         d="m 2698.14,1303.71 c -4.59,0 -9.12,-0.98 -13.47,-2.87 -19.61,-8.54 -29.28,-33.5 -21.56,-55.63 12.94,-37.11 55.91,-62.15 66.07,-67.64 10.18,5.47 53.22,30.37 66.24,67.45 7.76,22.1 -1.85,47.1 -21.46,55.7 -14.06,6.15 -30.56,1.85 -40.88,-10.39 l -3.77,-4.49 -3.77,4.49 c -7.1,8.49 -17.09,13.38 -27.4,13.38 z m 31.04,-137.16 -2.17,1.08 c -2.32,1.13 -57.22,28.49 -73.18,74.34 -9.38,26.87 2.69,57.32 26.93,67.89 16.31,7.13 35.47,3.32 48.58,-9.2 13.1,12.48 32.26,16.21 48.59,9.06 24.18,-10.62 36.19,-41.11 26.77,-67.97 -16.09,-45.76 -71.03,-72.99 -73.36,-74.14 l -2.16,-1.06" /><path
         id="path396"
         style="fill:#ffffff;fill-opacity:1;fill-rule:nonzero;stroke:none"
         d="M 1103.38,1576.23 H 899.496 v 203.89 c 0,3.63 2.93,6.58 6.563,6.58 3.648,0 6.578,-2.95 6.578,-6.58 v -190.74 h 190.743 c 3.64,0 6.57,-2.94 6.57,-6.58 0,-3.64 -2.93,-6.57 -6.57,-6.57" /><path
         id="path398"
         style="fill:#ffffff;fill-opacity:1;fill-rule:nonzero;stroke:none"
         d="m 955.387,1643.82 c -6.457,0 -11.692,-5.24 -11.692,-11.71 0,-3.11 1.211,-6.05 3.418,-8.26 2.219,-2.21 5.157,-3.42 8.274,-3.42 6.465,0 11.707,5.24 11.707,11.68 0,1.39 -0.242,2.74 -0.727,4.03 -1.676,4.59 -6.078,7.68 -10.98,7.68 z m 0,-36.55 c -6.633,0 -12.864,2.59 -17.571,7.28 -4.695,4.69 -7.285,10.93 -7.285,17.56 0,13.71 11.172,24.87 24.856,24.87 10.39,0 19.785,-6.57 23.367,-16.33 0.973,-2.74 1.496,-5.6 1.496,-8.54 0,-13.69 -11.152,-24.84 -24.863,-24.84" /><path
         id="path400"
         style="fill:#ffffff;fill-opacity:1;fill-rule:nonzero;stroke:none"
         d="m 972.563,1631.81 c -2.696,0 -5.215,1.65 -6.196,4.33 -1.23,3.41 0.531,7.18 3.93,8.43 l 33.273,12.13 c 3.4,1.23 7.18,-0.51 8.44,-3.92 1.24,-3.42 -0.52,-7.19 -3.93,-8.44 l -33.271,-12.13 -2.246,-0.4" /><path
         id="path402"
         style="fill:#ffffff;fill-opacity:1;fill-rule:nonzero;stroke:none"
         d="m 1022.99,1668.48 c -6.45,0 -11.69,-5.23 -11.69,-11.7 0,-1.37 0.24,-2.73 0.71,-4.03 1.66,-4.56 6.08,-7.66 10.98,-7.66 6.46,0 11.7,5.25 11.7,11.69 0,3.99 -2,7.68 -5.36,9.85 -1.9,1.22 -4.08,1.85 -6.34,1.85 z m 0,-36.54 c -10.4,0 -19.78,6.56 -23.357,16.33 -0.985,2.75 -1.485,5.6 -1.485,8.51 0,13.71 11.132,24.86 24.842,24.86 4.79,0 9.46,-1.37 13.48,-3.97 7.11,-4.6 11.38,-12.41 11.38,-20.89 0,-13.69 -11.15,-24.84 -24.86,-24.84" /><path
         id="path404"
         style="fill:#ffffff;fill-opacity:1;fill-rule:nonzero;stroke:none"
         d="m 1032.88,1665.57 c -1.21,0 -2.45,0.34 -3.55,1.06 -3.06,1.97 -3.91,6.04 -1.95,9.09 l 35.93,55.62 c 1.98,3.05 6.03,3.92 9.08,1.95 3.06,-1.98 3.93,-6.04 1.95,-9.09 l -35.92,-55.62 c -1.26,-1.95 -3.38,-3.01 -5.54,-3.01" /><path
         id="path406"
         style="fill:#ffffff;fill-opacity:1;fill-rule:nonzero;stroke:none"
         d="m 1078.72,1754.83 c -6.44,0 -11.69,-5.24 -11.69,-11.7 0,-3.99 2,-7.68 5.36,-9.84 1.89,-1.22 4.08,-1.86 6.33,-1.86 6.45,0 11.71,5.25 11.71,11.7 0,6.46 -5.26,11.7 -11.71,11.7 z m 0,-36.54 c -4.79,0 -9.44,1.36 -13.46,3.94 -7.14,4.63 -11.38,12.42 -11.38,20.9 0,13.71 11.14,24.86 24.84,24.86 13.71,0 24.85,-11.15 24.85,-24.86 0,-13.7 -11.14,-24.84 -24.85,-24.84" /><path
         id="path408"
         style="fill:#ffffff;fill-opacity:1;fill-rule:nonzero;stroke:none"
         d="m 906.059,1576.23 c -1.68,0 -3.36,0.64 -4.649,1.92 -2.558,2.58 -2.558,6.74 0,9.31 l 36.418,36.39 c 2.559,2.56 6.727,2.56 9.285,0 2.578,-2.58 2.578,-6.74 0,-9.3 l -36.406,-36.4 c -1.269,-1.28 -2.949,-1.92 -4.648,-1.92" /><path
         id="path410"
         style="fill:#ffffff;fill-opacity:1;fill-rule:nonzero;stroke:none"
         d="m 1749.5,1952.09 c 0,-8.03 -6.5,-14.54 -14.54,-14.54 -8.02,0 -14.53,6.51 -14.53,14.54 0,8.02 6.51,14.54 14.53,14.54 8.04,0 14.54,-6.52 14.54,-14.54" /><path
         id="path412"
         style="fill:#ffffff;fill-opacity:1;fill-rule:nonzero;stroke:none"
         d="m 1776.69,1982.86 c -1.41,0 -2.84,0.54 -3.92,1.62 -20.53,20.54 -53.9,20.52 -74.41,0 -2.17,-2.16 -5.67,-2.16 -7.83,0 -2.15,2.18 -2.15,5.67 0,7.84 24.83,24.82 65.23,24.82 90.08,0 2.14,-2.17 2.14,-5.66 0,-7.84 -1.1,-1.08 -2.5,-1.62 -3.92,-1.62" /><path
         id="path414"
         style="fill:#ffffff;fill-opacity:1;fill-rule:nonzero;stroke:none"
         d="m 1797.27,2008.98 c -1.43,0 -2.84,0.54 -3.92,1.61 -15.44,15.44 -35.97,23.95 -57.8,23.95 -21.82,0 -42.34,-8.51 -57.78,-23.95 -2.16,-2.16 -5.66,-2.16 -7.83,0 -2.17,2.17 -2.17,5.68 0,7.83 17.52,17.53 40.84,27.18 65.61,27.18 24.79,0 48.1,-9.65 65.62,-27.18 2.17,-2.15 2.17,-5.66 0,-7.83 -1.08,-1.07 -2.5,-1.61 -3.9,-1.61" /><path
         id="path416"
         style="fill:#ffffff;fill-opacity:1;fill-rule:nonzero;stroke:none"
         d="m 1817.44,2036.21 c -1.4,0 -2.82,0.54 -3.9,1.62 -21.14,21.13 -49.24,32.76 -79.14,32.76 -29.87,0 -57.95,-11.63 -79.11,-32.76 -2.16,-2.17 -5.64,-2.17 -7.81,0 -2.17,2.17 -2.17,5.67 0,7.83 23.22,23.22 54.08,36.02 86.92,36.02 32.85,0 63.74,-12.8 86.96,-36.02 2.17,-2.16 2.17,-5.66 0,-7.83 -1.09,-1.08 -2.5,-1.62 -3.92,-1.62" /><path
         id="path418"
         style="fill:#ffffff;fill-opacity:1;fill-rule:nonzero;stroke:none"
         d="m 2908,1763.01 c -2.02,0 -4.22,-1.61 -4.22,-4.22 v -108.81 c -0.01,-3.54 3.81,-5.1 6.32,-3.66 l 94.22,54.42 c 1.9,1.09 2.1,2.91 2.12,3.64 0,0.74 -0.22,2.55 -2.12,3.65 l -94.22,54.41 z m 0,-125.67 c -6.96,0 -12.65,5.66 -12.65,12.64 v 108.81 c 0,6.97 5.68,12.65 12.65,12.65 2.2,0 4.38,-0.6 6.31,-1.72 l 94.23,-54.39 c 3.95,-2.3 6.32,-6.39 6.32,-10.95 -0.01,-4.56 -2.37,-8.65 -6.32,-10.95 l -94.23,-54.39 c -1.93,-1.11 -4.11,-1.7 -6.31,-1.7" /><path
         id="path420"
         style="fill:#ffffff;fill-opacity:1;fill-rule:nonzero;stroke:none"
         d="m 2408.92,2031.58 c -1.16,0 -3.99,-0.33 -5.72,-3.29 l -84.95,-147.17 c -1.71,-2.97 -0.57,-5.59 -0.01,-6.57 0.58,-0.99 2.27,-3.3 5.7,-3.3 h 169.93 c 3.42,0 5.13,2.31 5.69,3.3 0.58,0.99 1.72,3.6 0,6.57 l -84.97,147.17 c -1.71,2.96 -4.54,3.29 -5.67,3.29 z m 84.95,-173.48 h -169.93 c -7.14,0 -13.52,3.69 -17.1,9.87 -3.56,6.19 -3.55,13.56 0.02,19.73 l 84.96,147.16 c 3.57,6.18 9.97,9.87 17.1,9.87 7.12,0 13.51,-3.69 17.08,-9.87 l 84.96,-147.16 c 3.56,-6.17 3.56,-13.54 0,-19.73 -3.57,-6.17 -9.96,-9.87 -17.09,-9.87" /><path
         id="path422"
         style="fill:#ffffff;fill-opacity:1;fill-rule:nonzero;stroke:none"
         d="m 2316.83,1827.37 v -20.24 H 2501 l -0.01,20.24 z m 184.16,-33.4 h -184.16 c -7.26,0 -13.18,5.91 -13.18,13.16 v 20.24 c 0,7.26 5.92,13.16 13.18,13.16 h 184.16 c 7.24,0 13.15,-5.9 13.15,-13.16 v -20.24 c 0,-7.25 -5.91,-13.16 -13.15,-13.16" /><path
         id="path424"
         style="fill:#ffffff;fill-opacity:1;fill-rule:nonzero;stroke:none"
         d="m 549.898,869.559 c -3.824,0 -6.937,-3.129 -6.937,-6.957 V 682.039 c 0,-3.848 3.113,-6.961 6.937,-6.961 h 180.575 c 1.855,0 3.609,0.731 4.918,2.031 1.308,1.309 2.019,3.071 2.019,4.911 l -0.027,139.531 -48.004,48.008 z M 730.473,661.199 H 549.898 c -11.492,0 -20.832,9.352 -20.832,20.84 v 180.563 c 0,11.488 9.34,20.839 20.832,20.839 h 142.375 c 1.829,0 3.602,-0.742 4.899,-2.031 l 52.066,-52.09 c 1.313,-1.289 2.047,-3.058 2.047,-4.898 l 0.02,-142.383 c 0,-5.57 -2.16,-10.82 -6.094,-14.75 -3.949,-3.93 -9.172,-6.09 -14.738,-6.09" /><path
         id="path426"
         style="fill:#ffffff;fill-opacity:1;fill-rule:nonzero;stroke:none"
         d="m 577.027,675.102 h 125.645 v 48.636 c 0,3.821 -3.117,6.934 -6.942,6.934 H 583.98 c -3.828,0 -6.953,-3.113 -6.953,-6.934 z M 709.609,661.219 H 570.09 c -3.836,0 -6.949,3.101 -6.949,6.953 v 55.566 c 0,11.481 9.339,20.821 20.839,20.821 h 111.75 c 11.497,0 20.825,-9.34 20.825,-20.821 v -55.566 c 0,-3.852 -3.11,-6.953 -6.946,-6.953" /><path
         id="path428"
         style="fill:#ffffff;fill-opacity:1;fill-rule:nonzero;stroke:none"
         d="m 577.668,869.012 v -48.301 c 0,-3.832 3.113,-6.941 6.934,-6.941 h 76.429 c 3.828,0 6.93,3.109 6.93,6.941 v 48.301 z m 83.363,-69.141 h -76.429 c -11.493,0 -20.813,9.348 -20.813,20.84 v 55.25 c 0,3.828 3.113,6.961 6.93,6.961 H 674.91 c 3.836,0 6.942,-3.133 6.942,-6.961 v -55.25 c 0,-11.492 -9.34,-20.84 -20.821,-20.84" /><path
         id="path430"
         style="fill:#ffffff;fill-opacity:1;fill-rule:nonzero;stroke:none"
         d="m 650.598,821.941 h -3.489 c -3.839,0 -6.929,3.098 -6.929,6.93 v 25.039 c 0,3.809 3.09,6.942 6.929,6.942 h 3.489 c 3.832,0 6.945,-3.133 6.945,-6.942 v -25.039 c 0,-3.832 -3.113,-6.93 -6.945,-6.93" /></g></g></svg>