<?xml version="1.0" encoding="UTF-8" standalone="no"?>
<svg
   xmlns:dc="http://purl.org/dc/elements/1.1/"
   xmlns:cc="http://creativecommons.org/ns#"
   xmlns:rdf="http://www.w3.org/1999/02/22-rdf-syntax-ns#"
   xmlns:svg="http://www.w3.org/2000/svg"
   xmlns="http://www.w3.org/2000/svg"
   viewBox="0 0 3811.8933 2685.4534"
   height="2685.4534"
   width="3811.8933"
   xml:space="preserve"
   id="svg2"
   version="1.1"><metadata
     id="metadata8"><rdf:RDF><cc:Work
         rdf:about=""><dc:format>image/svg+xml</dc:format><dc:type
           rdf:resource="http://purl.org/dc/dcmitype/StillImage" /></cc:Work></rdf:RDF></metadata><defs
     id="defs6"><clipPath
       id="clipPath20"
       clipPathUnits="userSpaceOnUse"><path
         id="path18"
         d="M 0,10334.6 V 0 h 14669.6 v 10334.6 z" /></clipPath></defs><g
     transform="matrix(1.3333333,0,0,-1.3333333,0,2685.4533)"
     id="g10"><g
       transform="scale(0.194888)"
       id="g12"><g
         id="g14"><g
           clip-path="url(#clipPath20)"
           id="g16"><path
             id="path22"
             style="fill:#8ea0b7;fill-opacity:1;fill-rule:nonzero;stroke:none"
             d="m 3647.7,2565.79 h 7374.19 V 7769.3 H 3647.7 Z" /><path
             id="path24"
             style="fill:#768192;fill-opacity:1;fill-rule:nonzero;stroke:none"
             d="m 10705.3,4438.51 h -846.02 v 231.31 H 9838.8 V 4438.51 H 8819.6 v 2247.31 h 1885.7 V 4438.51" /><path
             id="path26"
             style="fill:#ffffff;fill-opacity:1;fill-rule:nonzero;stroke:none"
             d="m 8819.6,4492.54 h 1885.6 V 6739.87 H 8819.6 Z" /><path
             id="path28"
             style="fill:#9ec7ec;fill-opacity:1;fill-rule:nonzero;stroke:none"
             d="M 8930.84,4602.3 H 10594 V 6630.09 H 8930.84 Z" /><path
             id="path30"
             style="fill:#76a5c9;fill-opacity:1;fill-rule:nonzero;stroke:none"
             d="m 10326.3,5531.86 v -584.95 h -164.2 v 908.21 H 9843.93 V 5388.18 H 9638.69 V 4602.3 H 10594 v 929.56 z M 9238.46,5701.19 H 8930.84 V 4602.3 h 579.57 v 580.64 h -271.95 v 518.25" /><path
             id="path32"
             style="fill:#ffffff;fill-opacity:1;fill-rule:nonzero;stroke:none"
             d="m 8887.54,5599.95 h 1749.73 v 32.4961 H 8887.54 Z" /><path
             id="path34"
             style="fill:#5f8a2c;fill-opacity:1;fill-rule:nonzero;stroke:none"
             d="m 9838.8,4214.84 h 20.4727 v 454.98 H 9838.8 Z" /><path
             id="path36"
             style="fill:#f0d57b;fill-opacity:1;fill-rule:nonzero;stroke:none"
             d="m 10011.8,3896.71 h -325.55 l -59.57,344.61 h 444.72 l -59.6,-344.61" /><path
             id="path38"
             style="fill:#bca668;fill-opacity:1;fill-rule:nonzero;stroke:none"
             d="m 10056,4151.93 h -413.82 l -15.5,89.39 h 444.72 l -15.4,-89.39" /><path
             id="path40"
             style="fill:#f0d57b;fill-opacity:1;fill-rule:nonzero;stroke:none"
             d="m 9606.16,4175.48 h 485.766 v 109.5 H 9606.16 Z" /><path
             id="path42"
             style="fill:#5f8a2c;fill-opacity:1;fill-rule:nonzero;stroke:none"
             d="m 10004.5,4549.29 c 0,0 -19.61,-112.27 -147.99,-89.64 0,0 23.81,126.12 147.99,89.64" /><path
             id="path44"
             style="fill:#5f8a2c;fill-opacity:1;fill-rule:nonzero;stroke:none"
             d="m 9993.36,4755.36 c 0,0 -19.56,-112.22 -147.94,-89.65 0,0 23.81,126.13 147.94,89.65" /><path
             id="path46"
             style="fill:#5f8a2c;fill-opacity:1;fill-rule:nonzero;stroke:none"
             d="m 9735.05,4754.48 c 0,0 113.91,0.62 114.43,-129.76 0,0 -128.34,1.08 -114.43,129.76" /><path
             id="path48"
             style="fill:#5f8a2c;fill-opacity:1;fill-rule:nonzero;stroke:none"
             d="m 9869.9,4837.71 c 0,0 73.12,-87.38 -27.04,-170.87 0,0 -80.97,99.6 27.04,170.87" /><path
             id="path50"
             style="fill:#5f8a2c;fill-opacity:1;fill-rule:nonzero;stroke:none"
             d="m 9841.42,4377.81 c 0,0 -113.91,-2.47 -116.53,127.87 0,0 128.33,1.02 116.53,-127.87" /><path
             id="path52"
             style="fill:#f8f2e4;fill-opacity:1;fill-rule:nonzero;stroke:none"
             d="m 9010.27,4376.47 v -413.88 c 0,-34.02 27.61,-61.57 61.58,-61.57 h 205.24 c 34.02,0 61.58,27.55 61.58,61.57 v 413.88 h -328.4" /><path
             id="path54"
             style="fill:#f8f2e4;fill-opacity:1;fill-rule:nonzero;stroke:none"
             d="m 9337.8,4067.78 c -53.37,0 -96.62,43.26 -96.62,96.62 0,53.37 43.25,96.62 96.62,96.62 53.41,0 96.67,-43.25 96.67,-96.62 0,-53.36 -43.26,-96.62 -96.67,-96.62 z m 0,236.86 c -77.43,0 -140.24,-62.76 -140.24,-140.24 0,-77.48 62.81,-140.23 140.24,-140.23 77.48,0 140.28,62.75 140.28,140.23 0,77.48 -62.8,140.24 -140.28,140.24" /><path
             id="path56"
             style="fill:#ffffff;fill-opacity:1;fill-rule:nonzero;stroke:none"
             d="m 8527.79,3902.51 h 387.352 v 387.352 H 8527.79 Z" /><path
             id="path58"
             style="fill:#4f6888;fill-opacity:1;fill-rule:nonzero;stroke:none"
             d="m 8539.7,4165.58 h 113.707 v 113.707 H 8539.7 Z" /><path
             id="path60"
             style="fill:#f47515;fill-opacity:1;fill-rule:nonzero;stroke:none"
             d="m 8664.64,4165.58 h 113.703 v 113.707 H 8664.64 Z" /><path
             id="path62"
             style="fill:#7ab62b;fill-opacity:1;fill-rule:nonzero;stroke:none"
             d="m 8789.58,4165.58 h 113.656 v 113.707 H 8789.58 Z" /><path
             id="path64"
             style="fill:#ed2024;fill-opacity:1;fill-rule:nonzero;stroke:none"
             d="m 8539.7,4039.3 h 113.707 v 113.707 H 8539.7 Z" /><path
             id="path66"
             style="fill:#ed2024;fill-opacity:1;fill-rule:nonzero;stroke:none"
             d="m 8664.64,4039.3 h 113.703 v 113.707 H 8664.64 Z" /><path
             id="path68"
             style="fill:#4f6888;fill-opacity:1;fill-rule:nonzero;stroke:none"
             d="m 8789.58,4039.3 h 113.656 v 113.707 H 8789.58 Z" /><path
             id="path70"
             style="fill:#7ab62b;fill-opacity:1;fill-rule:nonzero;stroke:none"
             d="m 8539.7,3913.08 h 113.707 v 113.656 H 8539.7 Z" /><path
             id="path72"
             style="fill:#f47515;fill-opacity:1;fill-rule:nonzero;stroke:none"
             d="m 8664.64,3913.08 h 113.703 v 113.656 H 8664.64 Z" /><path
             id="path74"
             style="fill:#f47515;fill-opacity:1;fill-rule:nonzero;stroke:none"
             d="m 8789.58,3913.08 h 113.656 v 113.656 H 8789.58 Z" /><path
             id="path76"
             style="fill:#ffffff;fill-opacity:1;fill-rule:nonzero;stroke:none"
             d="m 5287,3758.73 v -467.09 c 0,-94.41 76.55,-170.92 170.92,-170.92 h 467.09 l -13.6,23.5 h -439.89 c -88.93,0 -161.02,72.05 -161.02,161.02 v 439.89 l -23.5,13.6" /><path
             id="path78"
             style="fill:#ffffff;fill-opacity:1;fill-rule:nonzero;stroke:none"
             d="m 6176.43,3030.11 c 0,-14.16 -11.49,-25.66 -25.65,-25.66 H 5948.1 c -14.17,0 -25.66,11.5 -25.66,25.66 v 202.68 c 0,14.16 11.49,25.65 25.66,25.65 h 202.68 c 14.16,0 25.65,-11.49 25.65,-25.65 v -202.68" /><path
             id="path80"
             style="fill:#6f6f6a;fill-opacity:1;fill-rule:nonzero;stroke:none"
             d="m 6129.84,3131.45 c 0,-44.44 -36.02,-80.41 -80.4,-80.41 -44.39,0 -80.41,35.97 -80.41,80.41 0,44.38 36.02,80.35 80.41,80.35 44.38,0 80.4,-35.97 80.4,-80.35" /><path
             id="path82"
             style="fill:#6f6f6a;fill-opacity:1;fill-rule:nonzero;stroke:none"
             d="m 5894.22,3110.92 h 107.754 v 41.0508 H 5894.22 Z" /><path
             id="path84"
             style="fill:#ffffff;fill-opacity:1;fill-rule:nonzero;stroke:none"
             d="m 7189.12,3745.13 v -439.89 c 0,-88.97 -72.09,-161.02 -161.01,-161.02 h -439.9 l -13.6,-23.5 h 467.09 c 94.37,0 170.92,76.51 170.92,170.92 v 467.09 l -23.5,-13.6" /><path
             id="path86"
             style="fill:#ffffff;fill-opacity:1;fill-rule:nonzero;stroke:none"
             d="m 6323.19,3030.11 c 0,-14.16 11.49,-25.66 25.65,-25.66 h 202.68 c 14.16,0 25.66,11.5 25.66,25.66 v 202.68 c 0,14.16 -11.5,25.65 -25.66,25.65 h -202.68 c -14.16,0 -25.65,-11.49 -25.65,-25.65 v -202.68" /><path
             id="path88"
             style="fill:#6f6f6a;fill-opacity:1;fill-rule:nonzero;stroke:none"
             d="m 6369.78,3131.45 c 0,-44.44 36.02,-80.41 80.4,-80.41 44.39,0 80.41,35.97 80.41,80.41 0,44.38 -36.02,80.35 -80.41,80.35 -44.38,0 -80.4,-35.97 -80.4,-80.35" /><path
             id="path90"
             style="fill:#6f6f6a;fill-opacity:1;fill-rule:nonzero;stroke:none"
             d="m 6497.64,3110.92 h 107.754 v 41.0508 H 6497.64 Z" /><path
             id="path92"
             style="fill:#454341;fill-opacity:1;fill-rule:nonzero;stroke:none"
             d="M 6081.41,3853.09 H 4422.73 l -42.43,93.34 h 1743.54 l -42.43,-93.34" /><path
             id="path94"
             style="fill:#454341;fill-opacity:1;fill-rule:nonzero;stroke:none"
             d="m 5998.69,4007.59 c 0,-28.12 -22.78,-50.9 -50.9,-50.9 H 4556.36 c -28.11,0 -50.91,22.78 -50.91,50.9 v 832.84 c 0,28.12 22.8,50.91 50.91,50.91 h 1391.43 c 28.12,0 50.9,-22.79 50.9,-50.91 v -832.84" /><path
             id="path96"
             style="fill:#ffffff;fill-opacity:1;fill-rule:nonzero;stroke:none"
             d="m 4575.25,4076.91 h 1353.66 v 751.563 H 4575.25 Z" /><path
             id="path98"
             style="fill:#ffffff;fill-opacity:1;fill-rule:nonzero;stroke:none"
             d="m 4380.3,3941.86 h 1743.54 v 59.3672 H 4380.3 Z" /><path
             id="path100"
             style="fill:#a5abac;fill-opacity:1;fill-rule:nonzero;stroke:none"
             d="m 5140.14,4001.23 c 0.77,-9.65 8.73,-17.29 18.63,-17.29 h 186.62 c 9.9,0 17.86,7.64 18.63,17.29 h -223.88" /><path
             id="path102"
             style="fill:#ffffff;fill-opacity:1;fill-rule:nonzero;stroke:none"
             d="m 8333.68,3902.61 c 0,-62.29 -80.46,-112.78 -179.59,-112.78 -99.19,0 -179.59,50.49 -179.59,112.78 0,62.24 80.4,112.73 179.59,112.73 99.13,0 179.59,-50.49 179.59,-112.73" /><path
             id="path104"
             style="fill:#dedcdb;fill-opacity:1;fill-rule:nonzero;stroke:none"
             d="m 7652.93,3952.18 h -636.27 l 84.82,307.87 h 466.63 l 84.82,-307.87" /><path
             id="path106"
             style="fill:#454341;fill-opacity:1;fill-rule:nonzero;stroke:none"
             d="m 8463.65,4246.4 c 0,-34.07 -27.6,-61.63 -61.57,-61.63 H 6267.51 c -34.02,0 -61.57,27.56 -61.57,61.63 v 1450.37 c 0,33.99 27.55,61.56 61.57,61.56 h 2134.57 c 33.97,0 61.57,-27.57 61.57,-61.56 V 4246.4" /><path
             id="path108"
             style="fill:#ffffff;fill-opacity:1;fill-rule:nonzero;stroke:none"
             d="M 6289.73,4425.94 H 8379.86 V 5669.4 H 6289.73 Z" /><path
             id="path110"
             style="fill:#768192;fill-opacity:1;fill-rule:nonzero;stroke:none"
             d="m 7073.57,4158.71 v 0 l 7.18,26.06 v 0 l -7.18,-26.06" /><path
             id="path112"
             style="fill:#afaba9;fill-opacity:1;fill-rule:nonzero;stroke:none"
             d="m 7595.97,4158.71 h -522.4 l 7.18,26.06 h 508.04 l 7.18,-26.06" /><path
             id="path114"
             style="fill:#3c3a39;fill-opacity:1;fill-rule:nonzero;stroke:none"
             d="m 7588.79,4184.77 h -508.04 v 0 l 11.19,40.64 h 485.66 l 11.19,-40.64" /><path
             id="path116"
             style="fill:#ffffff;fill-opacity:1;fill-rule:nonzero;stroke:none"
             d="m 6205.94,4338.71 v -92.36 c 0,-33.97 27.55,-61.58 61.57,-61.58 h 2134.57 c 34.02,0 61.57,27.61 61.57,61.58 v 92.36 H 6205.94" /><path
             id="path118"
             style="fill:#ffffff;fill-opacity:1;fill-rule:nonzero;stroke:none"
             d="m 6919.17,3901.74 h 831.246 v 64.9609 H 6919.17 Z" /><path
             id="path120"
             style="fill:#4f6888;fill-opacity:1;fill-rule:nonzero;stroke:none"
             d="m 4629.32,2449.72 h 177.887 V 3517.06 H 4629.32 Z" /><path
             id="path122"
             style="fill:#465971;fill-opacity:1;fill-rule:nonzero;stroke:none"
             d="m 4629.32,3385.75 h 177.887 v 66.3477 H 4629.32 Z" /><path
             id="path124"
             style="fill:#4f6888;fill-opacity:1;fill-rule:nonzero;stroke:none"
             d="m 9862.41,2449.72 h 177.898 V 3517.06 H 9862.41 Z" /><path
             id="path126"
             style="fill:#465971;fill-opacity:1;fill-rule:nonzero;stroke:none"
             d="m 9862.41,3385.75 h 177.898 v 66.3477 H 9862.41 Z" /><path
             id="path128"
             style="fill:#4f6888;fill-opacity:1;fill-rule:nonzero;stroke:none"
             d="m 4517.61,3452.09 h 5634.4 v 338.656 h -5634.4 z" /><path
             id="path130"
             style="fill:#465971;fill-opacity:1;fill-rule:nonzero;stroke:none"
             d="m 4517.61,3677.86 h 5634.4 v 112.887 h -5634.4 z" /><path
             id="path132"
             style="fill:#4f6888;fill-opacity:1;fill-rule:nonzero;stroke:none"
             d="m 4194.41,3734.26 h 6280.76 v 169.379 H 4194.41 Z" /><path
             id="path134"
             style="fill:#f9e105;fill-opacity:1;fill-rule:nonzero;stroke:none"
             d="m 5891.14,7007.07 c 0,-79.35 -64.34,-143.68 -143.67,-143.68 -79.38,0 -143.67,64.33 -143.67,143.68 0,79.34 64.29,143.67 143.67,143.67 79.33,0 143.67,-64.33 143.67,-143.67" /><path
             id="path136"
             style="fill:#454341;fill-opacity:1;fill-rule:nonzero;stroke:none"
             d="m 5724.38,7224.59 h 46.1797 V 8325.17 H 5724.38 Z" /><path
             id="path138"
             style="fill:#454341;fill-opacity:1;fill-rule:nonzero;stroke:none"
             d="m 5788.77,7126.73 c 0,-20.75 -16.82,-37.57 -37.56,-37.57 h -7.49 c -20.78,0 -37.61,16.82 -37.61,37.57 v 135.25 c 0,20.74 16.83,37.56 37.61,37.56 h 7.49 c 20.74,0 37.56,-16.82 37.56,-37.56 v -135.25" /><path
             id="path140"
             style="fill:#ffffff;fill-opacity:1;fill-rule:nonzero;stroke:none"
             d="m 6142.11,7005.36 c 0,120.44 -176.67,218.07 -394.64,218.07 -217.97,0 -394.69,-97.63 -394.69,-218.07 h 789.33" /><path
             id="path142"
             style="fill:#f9e105;fill-opacity:1;fill-rule:nonzero;stroke:none"
             d="m 7478.47,7007.07 c 0,-79.35 -64.35,-143.68 -143.68,-143.68 -79.32,0 -143.67,64.33 -143.67,143.68 0,79.34 64.35,143.67 143.67,143.67 79.33,0 143.68,-64.33 143.68,-143.67" /><path
             id="path144"
             style="fill:#454341;fill-opacity:1;fill-rule:nonzero;stroke:none"
             d="m 7311.7,7224.59 h 46.1797 V 8325.17 H 7311.7 Z" /><path
             id="path146"
             style="fill:#454341;fill-opacity:1;fill-rule:nonzero;stroke:none"
             d="m 7376.1,7126.73 c 0,-20.75 -16.78,-37.57 -37.56,-37.57 h -7.49 c -20.73,0 -37.56,16.82 -37.56,37.57 v 135.25 c 0,20.74 16.83,37.56 37.56,37.56 h 7.49 c 20.78,0 37.56,-16.82 37.56,-37.56 v -135.25" /><path
             id="path148"
             style="fill:#ffffff;fill-opacity:1;fill-rule:nonzero;stroke:none"
             d="m 7729.48,7005.36 c 0,120.44 -176.71,218.07 -394.69,218.07 -217.97,0 -394.68,-97.63 -394.68,-218.07 h 789.37" /><path
             id="path150"
             style="fill:#f9e105;fill-opacity:1;fill-rule:nonzero;stroke:none"
             d="m 9065.84,7007.07 c 0,-79.35 -64.34,-143.68 -143.67,-143.68 -79.38,0 -143.67,64.33 -143.67,143.68 0,79.34 64.29,143.67 143.67,143.67 79.33,0 143.67,-64.33 143.67,-143.67" /><path
             id="path152"
             style="fill:#454341;fill-opacity:1;fill-rule:nonzero;stroke:none"
             d="m 8899.08,7224.59 h 46.1797 V 8325.17 H 8899.08 Z" /><path
             id="path154"
             style="fill:#454341;fill-opacity:1;fill-rule:nonzero;stroke:none"
             d="m 8963.48,7126.73 c 0,-20.75 -16.83,-37.57 -37.56,-37.57 h -7.54 c -20.74,0 -37.56,16.82 -37.56,37.57 v 135.25 c 0,20.74 16.82,37.56 37.56,37.56 h 7.54 c 20.73,0 37.56,-16.82 37.56,-37.56 v -135.25" /><path
             id="path156"
             style="fill:#ffffff;fill-opacity:1;fill-rule:nonzero;stroke:none"
             d="m 9316.81,7005.36 c 0,120.44 -176.72,218.07 -394.64,218.07 -217.97,0 -394.69,-97.63 -394.69,-218.07 h 789.33" /><path
             id="path158"
             style="fill:#768192;fill-opacity:1;fill-rule:nonzero;stroke:none"
             d="m 4320.51,5146.51 h 1348.71 v 906.543 H 4320.51 Z" /><path
             id="path160"
             style="fill:#454341;fill-opacity:1;fill-rule:nonzero;stroke:none"
             d="m 4320.5,5187.61 h 1348.72 v 906.492 H 4320.5 Z" /><path
             id="path162"
             style="fill:#ffffff;fill-opacity:1;fill-rule:nonzero;stroke:none"
             d="m 4379.15,5252.18 h 1231.42 v 777.328 H 4379.15 Z" /><path
             id="path164"
             style="fill:#fbe34a;fill-opacity:1;fill-rule:nonzero;stroke:none"
             d="m 4489.05,5632.29 h 261.688 v 261.691 H 4489.05 Z" /><path
             id="path166"
             style="fill:#454341;fill-opacity:1;fill-rule:nonzero;stroke:none"
             d="m 4571.15,5863.2 h 38.4844 v 70.5547 H 4571.15 Z" /><path
             id="path168"
             style="fill:#fbe34a;fill-opacity:1;fill-rule:nonzero;stroke:none"
             d="m 5079.13,5339.82 h 261.691 v 261.691 H 5079.13 Z" /><path
             id="path170"
             style="fill:#454341;fill-opacity:1;fill-rule:nonzero;stroke:none"
             d="m 5161.23,5570.72 h 38.4844 v 70.5547 H 5161.23 Z" /><path
             id="path172"
             style="fill:#fbe34a;fill-opacity:1;fill-rule:nonzero;stroke:none"
             d="m 5296.34,5613.48 h 261.691 v 261.688 H 5296.34 Z" /><path
             id="path174"
             style="fill:#454341;fill-opacity:1;fill-rule:nonzero;stroke:none"
             d="m 5378.43,5844.38 h 38.4844 v 70.5508 H 5378.43 Z" /><path
             id="path176"
             style="fill:#c7c3c1;fill-opacity:1;fill-rule:nonzero;stroke:none"
             d="m 3583.93,6345.14 h 63.7734 v 87.2344 H 3583.93 Z" /><path
             id="path178"
             style="fill:#768192;fill-opacity:1;fill-rule:nonzero;stroke:none"
             d="m 3647.7,6345.14 h 1711.59 v 87.2344 H 3647.7 Z" /><path
             id="path180"
             style="fill:#454341;fill-opacity:1;fill-rule:nonzero;stroke:none"
             d="M 3583.92,6383.63 H 5359.3 v 87.2305 H 3583.92 Z" /><path
             id="path182"
             style="fill:#768192;fill-opacity:1;fill-rule:nonzero;stroke:none"
             d="m 5912.08,5952.01 h 860.906 v 479.676 H 5912.08 Z" /><path
             id="path184"
             style="fill:#454341;fill-opacity:1;fill-rule:nonzero;stroke:none"
             d="m 5912.08,5993.9 h 860.906 v 479.684 H 5912.08 Z" /><path
             id="path186"
             style="fill:#c4d7e3;fill-opacity:1;fill-rule:nonzero;stroke:none"
             d="m 5952.71,6028.72 h 779.629 v 410.039 H 5952.71 Z" /><path
             id="path188"
             style="fill:#f04421;fill-opacity:1;fill-rule:nonzero;stroke:none"
             d="m 6456.24,6250.43 c 0,-62.82 -50.9,-113.74 -113.71,-113.74 -62.81,0 -113.76,50.92 -113.76,113.74 0,62.81 50.95,62.32 113.76,62.32 62.81,0 113.71,0.49 113.71,-62.32" /><path
             id="path190"
             style="fill:#9ec633;fill-opacity:1;fill-rule:nonzero;stroke:none"
             d="m 6346.33,6311.58 c 0,0 -27.45,52.23 37.2,60.72 0,0 22.22,-54.19 -37.2,-60.72" /><path
             id="path192"
             style="fill:#9ec633;fill-opacity:1;fill-rule:nonzero;stroke:none"
             d="m 6346.17,6311.89 c 0,0 -58.65,-5.94 -42.43,57.19 0,0 58.6,0.37 42.43,-57.19" /><path
             id="path194"
             style="fill:#f04421;fill-opacity:1;fill-rule:nonzero;stroke:none"
             d="m 6179.51,6192.63 c 0,-30.89 -25.04,-55.94 -55.93,-55.94 -30.88,0 -55.93,25.05 -55.93,55.94 0,30.89 25.05,30.66 55.93,30.66 30.89,0 55.93,0.23 55.93,-30.66" /><path
             id="path196"
             style="fill:#9ec633;fill-opacity:1;fill-rule:nonzero;stroke:none"
             d="m 6125.48,6222.71 c 0,0 -13.49,25.69 18.27,29.86 0,0 10.93,-26.65 -18.27,-29.86" /><path
             id="path198"
             style="fill:#9ec633;fill-opacity:1;fill-rule:nonzero;stroke:none"
             d="m 6125.38,6222.86 c 0,0 -28.84,-2.92 -20.83,28.13 0,0 28.78,0.19 20.83,-28.13" /><path
             id="path200"
             style="fill:#f04421;fill-opacity:1;fill-rule:nonzero;stroke:none"
             d="m 6617.41,6192.63 c 0,-30.89 -25.04,-55.94 -55.93,-55.94 -30.89,0 -55.98,25.05 -55.98,55.94 0,30.89 25.09,30.66 55.98,30.66 30.89,0 55.93,0.23 55.93,-30.66" /><path
             id="path202"
             style="fill:#9ec633;fill-opacity:1;fill-rule:nonzero;stroke:none"
             d="m 6563.32,6222.71 c 0,0 -13.49,25.69 18.32,29.86 0,0 10.88,-26.65 -18.32,-29.86" /><path
             id="path204"
             style="fill:#9ec633;fill-opacity:1;fill-rule:nonzero;stroke:none"
             d="m 6563.27,6222.86 c 0,0 -28.89,-2.92 -20.88,28.13 0,0 28.79,0.19 20.88,-28.13" /><path
             id="path206"
             style="fill:#454341;fill-opacity:1;fill-rule:nonzero;stroke:none"
             d="m 4962.95,6590.04 c -3.36,9.08 1.29,19.16 10.37,22.51 9.09,3.36 19.17,-1.29 22.52,-10.37 l 46.48,-125.97 c 3.36,-9.08 -1.29,-19.16 -10.38,-22.52 -9.08,-3.35 -19.16,1.3 -22.52,10.38 l -46.47,125.97" /><path
             id="path208"
             style="fill:#454341;fill-opacity:1;fill-rule:nonzero;stroke:none"
             d="m 4766.52,6590.04 c 3.36,9.08 -1.29,19.16 -10.38,22.51 -9.08,3.36 -19.16,-1.29 -22.52,-10.37 l -46.47,-125.97 c -3.36,-9.08 1.3,-19.16 10.37,-22.52 9.09,-3.35 19.18,1.3 22.52,10.38 l 46.48,125.97" /><path
             id="path210"
             style="fill:#454341;fill-opacity:1;fill-rule:nonzero;stroke:none"
             d="m 5150.51,6779.12 c 0,-157.84 -127.94,-285.78 -285.78,-285.78 -157.83,0 -285.78,127.94 -285.78,285.78 0,157.83 127.95,285.78 285.78,285.78 157.84,0 285.78,-127.95 285.78,-285.78" /><path
             id="path212"
             style="fill:#ffffff;fill-opacity:1;fill-rule:nonzero;stroke:none"
             d="m 5099.2,6779.12 c 0,-129.49 -104.97,-234.47 -234.47,-234.47 -129.48,0 -234.46,104.98 -234.46,234.47 0,129.49 104.98,234.46 234.46,234.46 129.5,0 234.47,-104.97 234.47,-234.46" /><path
             id="path214"
             style="fill:#8d8467;fill-opacity:1;fill-rule:nonzero;stroke:none"
             d="m 4654.91,6769.13 h 419.637 v 19.9844 H 4654.91 Z" /><path
             id="path216"
             style="fill:#8d8467;fill-opacity:1;fill-rule:nonzero;stroke:none"
             d="m 4854.74,6569.3 h 19.9844 v 419.637 H 4854.74 Z" /><path
             id="path218"
             style="fill:#ffffff;fill-opacity:1;fill-rule:nonzero;stroke:none"
             d="m 5055.23,6779.12 c 0,-105.22 -85.28,-190.5 -190.5,-190.5 -105.21,0 -190.5,85.28 -190.5,190.5 0,105.21 85.29,190.5 190.5,190.5 105.22,0 190.5,-85.29 190.5,-190.5" /><path
             id="path220"
             style="fill:#8d8467;fill-opacity:1;fill-rule:nonzero;stroke:none"
             d="m 4859.21,6773.56 h 140.07 v 11.1094 h -140.07 z" /><path
             id="path222"
             style="fill:#8d8467;fill-opacity:1;fill-rule:nonzero;stroke:none"
             d="m 4859.18,6773.49 h 11.1094 v 174.555 H 4859.18 Z" /><path
             id="path224"
             style="fill:#454341;fill-opacity:1;fill-rule:nonzero;stroke:none"
             d="m 5003.04,7101.95 c 32.81,32.81 99.75,19.07 149.52,-30.69 49.72,-49.76 63.48,-116.69 30.69,-149.5 l -180.21,180.19" /><path
             id="path226"
             style="fill:#454341;fill-opacity:1;fill-rule:nonzero;stroke:none"
             d="m 5053.07,6996.58 c -6.85,-6.85 -6.85,-17.95 0,-24.79 6.84,-6.85 17.94,-6.85 24.79,0 l 94.92,94.93 c 6.88,6.85 6.88,17.96 0,24.8 -6.83,6.85 -17.91,6.84 -24.78,0 l -94.93,-94.94" /><path
             id="path228"
             style="fill:#454341;fill-opacity:1;fill-rule:nonzero;stroke:none"
             d="m 4726.43,7101.95 c -32.81,32.81 -99.75,19.07 -149.51,-30.69 -49.76,-49.76 -63.49,-116.69 -30.68,-149.5 l 180.19,180.19" /><path
             id="path230"
             style="fill:#454341;fill-opacity:1;fill-rule:nonzero;stroke:none"
             d="m 4676.4,6996.58 c 6.85,-6.85 6.85,-17.95 0,-24.79 -6.85,-6.85 -17.95,-6.85 -24.79,0 l -94.95,94.93 c -6.84,6.85 -6.84,17.96 0,24.8 6.86,6.85 17.95,6.84 24.8,0 l 94.94,-94.94" /><path
             id="path232"
             style="fill:#f0e9d4;fill-opacity:1;fill-rule:nonzero;stroke:none"
             d="m 3818.85,6854.84 v -98.14 h 499.3 c 0,0 60.91,51.63 -5.08,100.68 -60.08,0 -494.22,-2.54 -494.22,-2.54" /><path
             id="path234"
             style="fill:#768192;fill-opacity:1;fill-rule:nonzero;stroke:none"
             d="m 4329.65,6842.18 v 0 c -4.32,5.05 -9.77,10.14 -16.58,15.2 6.84,-5.04 12.29,-10.17 16.58,-15.2" /><path
             id="path236"
             style="fill:#bdb5a5;fill-opacity:1;fill-rule:nonzero;stroke:none"
             d="m 4329.65,6842.18 h -510.8 v 12.66 c 0,0 434.14,2.54 494.22,2.54 v 0 c 6.81,-5.06 12.26,-10.15 16.57,-15.2" /><path
             id="path238"
             style="fill:#894336;fill-opacity:1;fill-rule:nonzero;stroke:none"
             d="m 3797.71,6762.53 h 510.58 c 16.35,0 29.61,19.75 29.61,44.1 0,24.35 -13.26,44.1 -29.61,44.1 h -510.58 v 15.12 h 513.97 c 21.95,0 39.75,-26.51 39.75,-59.22 0,-32.7 -17.8,-59.22 -39.75,-59.22 h -513.97 v 15.12" /><path
             id="path240"
             style="fill:#f0e9d4;fill-opacity:1;fill-rule:nonzero;stroke:none"
             d="m 3915.18,6735.64 v -115.5 h 587.6 c 0,0 71.67,60.74 -6,118.46 -70.66,0 -581.6,-2.96 -581.6,-2.96" /><path
             id="path242"
             style="fill:#768192;fill-opacity:1;fill-rule:nonzero;stroke:none"
             d="m 4513.35,6723.99 c -0.03,0.03 -0.05,0.06 -0.08,0.09 0.03,-0.03 0.06,-0.06 0.08,-0.09 m -1.05,1.11 c -0.07,0.07 -0.14,0.14 -0.21,0.22 0.07,-0.08 0.14,-0.15 0.21,-0.22 m -0.92,0.94 c -0.12,0.12 -0.24,0.24 -0.35,0.36 0.11,-0.12 0.24,-0.24 0.35,-0.36 m -1.1,1.1 c -0.2,0.2 -0.4,0.39 -0.6,0.58 0.2,-0.19 0.4,-0.38 0.6,-0.58 m -0.74,0.71 c -3.43,3.31 -7.3,6.62 -11.66,9.92 4.37,-3.3 8.24,-6.61 11.66,-9.92" /><path
             id="path244"
             style="fill:#bdb5a5;fill-opacity:1;fill-rule:nonzero;stroke:none"
             d="m 4516.31,6720.68 h -601.13 v 14.96 c 0,0 510.94,2.96 581.6,2.96 0.37,-0.28 0.74,-0.55 1.1,-0.83 4.36,-3.3 8.23,-6.61 11.66,-9.92 0.05,-0.04 0.1,-0.09 0.14,-0.13 0.2,-0.19 0.4,-0.38 0.6,-0.58 0.25,-0.25 0.5,-0.5 0.75,-0.74 0.11,-0.12 0.23,-0.24 0.35,-0.36 0.24,-0.24 0.48,-0.49 0.71,-0.72 0.07,-0.08 0.14,-0.15 0.21,-0.22 0.33,-0.34 0.65,-0.68 0.97,-1.02 0.03,-0.03 0.05,-0.06 0.08,-0.09 1.04,-1.1 2.03,-2.2 2.96,-3.31" /><path
             id="path246"
             style="fill:#90642e;fill-opacity:1;fill-rule:nonzero;stroke:none"
             d="m 3890.32,6626.99 h 600.84 c 19.24,0 34.84,23.23 34.84,51.89 0,28.66 -15.6,51.89 -34.84,51.89 h -600.84 v 17.8 h 604.82 c 25.84,0 46.79,-31.2 46.79,-69.69 0,-38.49 -20.95,-69.68 -46.79,-69.68 h -604.82 v 17.79" /><path
             id="path248"
             style="fill:#f0e9d4;fill-opacity:1;fill-rule:nonzero;stroke:none"
             d="m 4462.51,6597.75 v -115.5 h -587.55 c 0,0 -71.67,60.73 5.95,118.45 70.71,0 581.6,-2.95 581.6,-2.95" /><path
             id="path250"
             style="fill:#bdb5a5;fill-opacity:1;fill-rule:nonzero;stroke:none"
             d="m 4462.51,6582.79 h -601.08 c 5.08,5.95 11.5,11.96 19.48,17.91 70.71,0 581.6,-2.95 581.6,-2.95 v -14.96" /><path
             id="path252"
             style="fill:#4c792c;fill-opacity:1;fill-rule:nonzero;stroke:none"
             d="m 4487.4,6489.09 h -600.83 c -19.25,0 -34.85,23.23 -34.85,51.89 0,28.66 15.6,51.9 34.85,51.9 h 600.83 v 17.79 h -604.82 c -25.83,0 -46.78,-31.21 -46.78,-69.69 0,-38.49 20.95,-69.68 46.78,-69.68 h 604.82 v 17.79" /><path
             id="path254"
             style="fill:#454341;fill-opacity:1;fill-rule:nonzero;stroke:none"
             d="m 7645.13,6497.37 h 31.6055 v 65.8555 H 7645.13 Z" /><path
             id="path256"
             style="fill:#454341;fill-opacity:1;fill-rule:nonzero;stroke:none"
             d="m 7343,6497.37 h 31.6602 v 65.8555 H 7343 Z" /><path
             id="path258"
             style="fill:#768192;fill-opacity:1;fill-rule:nonzero;stroke:none"
             d="m 7736.51,5979.99 h -453.23 v 453.22 -417.33 h 453.23 v -35.89" /><path
             id="path260"
             style="fill:#ffffff;fill-opacity:1;fill-rule:nonzero;stroke:none"
             d="m 7283.28,6015.88 h 453.234 v 453.262 H 7283.28 Z" /><path
             id="path262"
             style="fill:#c8c3c1;fill-opacity:1;fill-rule:nonzero;stroke:none"
             d="m 7283.28,6427.25 h 453.234 v 41.8867 H 7283.28 Z" /><path
             id="path264"
             style="fill:#ed2024;fill-opacity:1;fill-rule:nonzero;stroke:none"
             d="m 7271.99,6445.2 h 475.762 v 88.9336 H 7271.99 Z" /><path
             id="path266"
             style="fill:#454341;fill-opacity:1;fill-rule:nonzero;stroke:none"
             d="m 7465.38,6283.96 c 0,-28.06 16.99,-47.8 43.31,-47.8 20.42,0 36.33,10.04 44.33,23.55 1.69,3.12 2.77,6.24 2.77,11.43 0,38.45 -14.21,67.9 -46.43,67.9 -25.61,0 -43.98,-22.87 -43.98,-55.08 z m -11.08,-129.2 c 6.57,-0.69 14.21,0 24.58,1.04 17.65,2.42 34.27,9.35 47.1,21.82 14.93,13.51 25.66,33.26 29.81,59.58 h -1.08 c -12.46,-15.24 -30.47,-23.9 -53.31,-23.9 -40.17,0 -66.14,30.48 -66.14,68.92 0,42.61 30.79,80.02 76.87,80.02 46.08,0 74.5,-37.06 74.5,-95.25 0,-49.19 -16.67,-83.83 -38.84,-105.3 -17.29,-16.98 -41.2,-27.37 -65.42,-30.14 -11.08,-1.73 -20.78,-2.08 -28.07,-1.73 v 24.94" /><path
             id="path268"
             style="fill:#4f6888;fill-opacity:1;fill-rule:nonzero;stroke:none"
             d="m 8702.25,5321.5 v 1231.47 c 0,4.25 -3.44,7.7 -7.7,7.7 -4.26,0 -7.69,-3.45 -7.69,-7.7 V 5321.5 c 0,-4.25 3.43,-7.7 7.69,-7.7 4.26,0 7.7,3.45 7.7,7.7" /><path
             id="path270"
             style="fill:#4f6888;fill-opacity:1;fill-rule:nonzero;stroke:none"
             d="m 7912.51,6090.64 c 0,-15.58 -12.67,-28.22 -28.22,-28.22 -15.6,0 -28.22,12.64 -28.22,28.22 0,15.58 12.62,28.22 28.22,28.22 15.55,0 28.22,-12.64 28.22,-28.22" /><path
             id="path272"
             style="fill:#4f6888;fill-opacity:1;fill-rule:nonzero;stroke:none"
             d="m 8312.28,7196.92 c 0,-15.58 -12.62,-28.22 -28.22,-28.22 -15.6,0 -28.22,12.64 -28.22,28.22 0,15.58 12.62,28.22 28.22,28.22 15.6,0 28.22,-12.64 28.22,-28.22" /><path
             id="path274"
             style="fill:#4f6888;fill-opacity:1;fill-rule:nonzero;stroke:none"
             d="m 6280.34,7458.61 c 0,-15.58 -12.62,-28.22 -28.22,-28.22 -15.6,0 -28.22,12.64 -28.22,28.22 0,15.58 12.62,28.22 28.22,28.22 15.6,0 28.22,-12.64 28.22,-28.22" /><path
             id="path276"
             style="fill:#4f6888;fill-opacity:1;fill-rule:nonzero;stroke:none"
             d="m 4802.57,7327.77 c 0,-15.59 -12.64,-28.23 -28.22,-28.23 -15.58,0 -28.22,12.64 -28.22,28.23 0,15.58 12.64,28.21 28.22,28.21 15.58,0 28.22,-12.63 28.22,-28.21" /><path
             id="path278"
             style="fill:#4f6888;fill-opacity:1;fill-rule:nonzero;stroke:none"
             d="m 5839.06,5262.47 c 0,-15.58 -12.62,-28.22 -28.22,-28.22 -15.6,0 -28.22,12.64 -28.22,28.22 0,15.58 12.62,28.22 28.22,28.22 15.6,0 28.22,-12.64 28.22,-28.22" /><path
             id="path280"
             style="fill:#4f6888;fill-opacity:1;fill-rule:nonzero;stroke:none"
             d="m 4053.42,5354.83 c 0,-15.58 -12.64,-28.22 -28.22,-28.22 -15.58,0 -28.22,12.64 -28.22,28.22 0,15.58 12.64,28.22 28.22,28.22 15.58,0 28.22,-12.64 28.22,-28.22" /><path
             id="path282"
             style="fill:#4f6888;fill-opacity:1;fill-rule:nonzero;stroke:none"
             d="m 4104.73,3292.11 c 0,-15.61 -12.64,-28.23 -28.22,-28.23 -15.58,0 -28.22,12.62 -28.22,28.23 0,15.59 12.64,28.21 28.22,28.21 15.58,0 28.22,-12.62 28.22,-28.21" /><path
             id="path284"
             style="fill:#4f6888;fill-opacity:1;fill-rule:nonzero;stroke:none"
             d="m 5110.44,2871.35 c 0,-15.6 -12.64,-28.22 -28.22,-28.22 -15.58,0 -28.22,12.62 -28.22,28.22 0,15.6 12.64,28.22 28.22,28.22 15.58,0 28.22,-12.62 28.22,-28.22" /><path
             id="path286"
             style="fill:#4f6888;fill-opacity:1;fill-rule:nonzero;stroke:none"
             d="m 8917.76,3158.7 c 0,-15.61 -12.62,-28.23 -28.22,-28.23 -15.6,0 -28.22,12.62 -28.22,28.23 0,15.59 12.62,28.21 28.22,28.21 15.6,0 28.22,-12.62 28.22,-28.21" /><path
             id="path288"
             style="fill:#4f6888;fill-opacity:1;fill-rule:nonzero;stroke:none"
             d="m 10652.1,2850.82 c 0,-15.59 -12.6,-28.22 -28.2,-28.22 -15.6,0 -28.3,12.63 -28.3,28.22 0,15.6 12.7,28.23 28.3,28.23 15.6,0 28.2,-12.63 28.2,-28.23" /><path
             id="path290"
             style="fill:#4f6888;fill-opacity:1;fill-rule:nonzero;stroke:none"
             d="m 10354.5,7366.25 c 0,-15.59 -12.6,-28.22 -28.2,-28.22 -15.6,0 -28.3,12.63 -28.3,28.22 0,15.58 12.7,28.22 28.3,28.22 15.6,0 28.2,-12.64 28.2,-28.22" /><path
             id="path292"
             style="fill:#4f6888;fill-opacity:1;fill-rule:nonzero;stroke:none"
             d="M 9515.54,6796.69 H 10186 c 4.3,0 7.7,3.45 7.7,7.7 0,4.24 -3.4,7.69 -7.7,7.69 h -670.46 c -4.26,0 -7.7,-3.45 -7.7,-7.69 0,-4.25 3.44,-7.7 7.7,-7.7" /><path
             id="path294"
             style="fill:#4f6888;fill-opacity:1;fill-rule:nonzero;stroke:none"
             d="m 9802.89,6899.31 h 718.31 c 4.3,0 7.7,3.45 7.7,7.7 0,4.25 -3.4,7.7 -7.7,7.7 h -718.31 c -4.26,0 -7.7,-3.45 -7.7,-7.7 0,-4.25 3.44,-7.7 7.7,-7.7" /><path
             id="path296"
             style="fill:#4f6888;fill-opacity:1;fill-rule:nonzero;stroke:none"
             d="m 10316,4272.16 h 1118.6 c 4.3,0 7.7,3.43 7.7,7.69 0,4.26 -3.4,7.7 -7.7,7.7 H 10316 c -4.3,0 -7.7,-3.44 -7.7,-7.7 0,-4.26 3.4,-7.69 7.7,-7.69" /><path
             id="path298"
             style="fill:#4f6888;fill-opacity:1;fill-rule:nonzero;stroke:none"
             d="m 7801.73,3317.76 h 1652.23 c 4.27,0 7.7,3.44 7.7,7.7 0,4.25 -3.43,7.69 -7.7,7.69 H 7801.73 c -4.26,0 -7.69,-3.44 -7.69,-7.69 0,-4.26 3.43,-7.7 7.69,-7.7" /><path
             id="path300"
             style="fill:#4f6888;fill-opacity:1;fill-rule:nonzero;stroke:none"
             d="m 9125.57,3194.61 h 543.91 c 4.25,0 7.69,3.44 7.69,7.7 0,4.26 -3.44,7.69 -7.69,7.69 h -543.91 c -4.26,0 -7.69,-3.43 -7.69,-7.69 0,-4.26 3.43,-7.7 7.69,-7.7" /><path
             id="path302"
             style="fill:#4f6888;fill-opacity:1;fill-rule:nonzero;stroke:none"
             d="m 4474.18,2566.04 v 533.64 c 0,4.27 -3.45,7.7 -7.7,7.7 -4.25,0 -7.7,-3.43 -7.7,-7.7 v -533.64 c 0,-4.25 3.45,-7.69 7.7,-7.69 4.25,0 7.7,3.44 7.7,7.69" /><path
             id="path304"
             style="fill:#4f6888;fill-opacity:1;fill-rule:nonzero;stroke:none"
             d="m 4250.97,5000.78 h 831.25 c 4.25,0 7.69,3.44 7.69,7.7 0,4.26 -3.44,7.7 -7.69,7.7 h -831.25 c -4.25,0 -7.7,-3.44 -7.7,-7.7 0,-4.26 3.45,-7.7 7.7,-7.7" /><path
             id="path306"
             style="fill:#4f6888;fill-opacity:1;fill-rule:nonzero;stroke:none"
             d="m 3666.02,6196.34 h 1241.74 c 4.25,0 7.7,3.45 7.7,7.7 0,4.25 -3.45,7.7 -7.7,7.7 H 3666.02 c -4.25,0 -7.7,-3.45 -7.7,-7.7 0,-4.25 3.45,-7.7 7.7,-7.7" /><path
             id="path308"
             style="fill:#4f6888;fill-opacity:1;fill-rule:nonzero;stroke:none"
             d="m 6385.53,6555.52 h 574.69 c 4.26,0 7.7,3.45 7.7,7.7 0,4.25 -3.44,7.7 -7.7,7.7 h -574.69 c -4.26,0 -7.7,-3.45 -7.7,-7.7 0,-4.25 3.44,-7.7 7.7,-7.7" /><path
             id="path310"
             style="fill:#4f6888;fill-opacity:1;fill-rule:nonzero;stroke:none"
             d="m 6349.61,6909.57 h 200.12 c 4.25,0 7.69,3.45 7.69,7.7 0,4.25 -3.44,7.7 -7.69,7.7 h -200.12 c -4.26,0 -7.7,-3.45 -7.7,-7.7 0,-4.25 3.44,-7.7 7.7,-7.7" /><path
             id="path312"
             style="fill:#4f6888;fill-opacity:1;fill-rule:nonzero;stroke:none"
             d="m 7770.95,7550.97 h 754.28 c 4.25,0 7.69,3.45 7.69,7.7 0,4.24 -3.44,7.69 -7.69,7.69 h -754.28 c -4.27,0 -7.7,-3.45 -7.7,-7.69 0,-4.25 3.43,-7.7 7.7,-7.7" /><path
             id="path314"
             style="fill:#4f6888;fill-opacity:1;fill-rule:nonzero;stroke:none"
             d="m 3542.87,7494.53 h 636.26 c 4.25,0 7.7,3.45 7.7,7.69 0,4.25 -3.45,7.7 -7.7,7.7 h -636.26 c -4.25,0 -7.7,-3.45 -7.7,-7.7 0,-4.24 3.45,-7.69 7.7,-7.69" /><path
             id="path316"
             style="fill:#4f6888;fill-opacity:1;fill-rule:nonzero;stroke:none"
             d="m 4422.86,4320.9 v 338.66 c 0,4.26 -3.45,7.7 -7.69,7.7 -4.25,0 -7.7,-3.44 -7.7,-7.7 V 4320.9 c 0,-4.26 3.45,-7.69 7.7,-7.69 4.24,0 7.69,3.43 7.69,7.69" /><path
             id="path318"
             style="fill:#4f6888;fill-opacity:1;fill-rule:nonzero;stroke:none"
             d="m 10200.6,2566.04 v 697.84 c 0,4.26 -3.5,7.7 -7.7,7.7 -4.3,0 -7.7,-3.44 -7.7,-7.7 v -697.84 c 0,-4.25 3.4,-7.69 7.7,-7.69 4.2,0 7.7,3.44 7.7,7.69" /><path
             id="path320"
             style="fill:#4f6888;fill-opacity:1;fill-rule:nonzero;stroke:none"
             d="m 10344.2,3068.9 v 441.28 c 0,4.26 -3.4,7.7 -7.7,7.7 -4.2,0 -7.7,-3.44 -7.7,-7.7 V 3068.9 c 0,-4.26 3.5,-7.7 7.7,-7.7 4.3,0 7.7,3.44 7.7,7.7" /><path
             id="path322"
             style="fill:#ffffff;fill-opacity:1;fill-rule:nonzero;stroke:none"
             d="m 10925.8,190.109 h 3743.75 v 9954.44 H 10925.8 Z" /><path
             id="path324"
             style="fill:#ffffff;fill-opacity:1;fill-rule:nonzero;stroke:none"
             d="m 0,190.109 h 3743.77 v 9954.44 H 0 Z" /><path
             id="path326"
             style="fill:#ffffff;fill-opacity:1;fill-rule:nonzero;stroke:none"
             d="m 2357.57,7681.39 h 9954.45 v 2653.24 H 2357.57 Z" /><path
             id="path328"
             style="fill:#ffffff;fill-opacity:1;fill-rule:nonzero;stroke:none"
             d="m 2357.57,0 h 9954.45 V 2653.27 H 2357.57 Z" /></g></g></g></g></svg>